<?xml version="1.0" encoding="UTF-8" standalone="no"?>
<!-- Created with Inkscape (http://www.inkscape.org/) -->

<svg
   version="1.1"
   id="svg2"
   width="666.66669"
   height="666.66669"
   viewBox="0 0 666.66669 666.66669"
   sodipodi:docname="2992775.ai"
   xmlns:inkscape="http://www.inkscape.org/namespaces/inkscape"
   xmlns:sodipodi="http://sodipodi.sourceforge.net/DTD/sodipodi-0.dtd"
   xmlns="http://www.w3.org/2000/svg"
   xmlns:svg="http://www.w3.org/2000/svg">
  <defs
     id="defs6">
    <clipPath
       clipPathUnits="userSpaceOnUse"
       id="clipPath18">
      <path
         d="M 0,500 H 500 V 0 H 0 Z"
         id="path16" />
    </clipPath>
    <clipPath
       clipPathUnits="userSpaceOnUse"
       id="clipPath94">
      <path
         d="M 0,500 H 500 V 0 H 0 Z"
         id="path92" />
    </clipPath>
    <clipPath
       clipPathUnits="userSpaceOnUse"
       id="clipPath106">
      <path
         d="M 0,500 H 500 V 0 H 0 Z"
         id="path104" />
    </clipPath>
    <clipPath
       clipPathUnits="userSpaceOnUse"
       id="clipPath162">
      <path
         d="M 0,500 H 500 V 0 H 0 Z"
         id="path160" />
    </clipPath>
    <clipPath
       clipPathUnits="userSpaceOnUse"
       id="clipPath210">
      <path
         d="M 0,500 H 500 V 0 H 0 Z"
         id="path208" />
    </clipPath>
    <clipPath
       clipPathUnits="userSpaceOnUse"
       id="clipPath258">
      <path
         d="M 0,500 H 500 V 0 H 0 Z"
         id="path256" />
    </clipPath>
    <clipPath
       clipPathUnits="userSpaceOnUse"
       id="clipPath338">
      <path
         d="m 345.979,319.68 h 8.972 v -30.573 h -8.972 z"
         id="path336" />
    </clipPath>
    <clipPath
       clipPathUnits="userSpaceOnUse"
       id="clipPath354">
      <path
         d="m 386.838,341.861 h 13.574 v -10.265 h -13.574 z"
         id="path352" />
    </clipPath>
    <clipPath
       clipPathUnits="userSpaceOnUse"
       id="clipPath466">
      <path
         d="M 0,500 H 500 V 0 H 0 Z"
         id="path464" />
    </clipPath>
    <clipPath
       clipPathUnits="userSpaceOnUse"
       id="clipPath578">
      <path
         d="m 113.254,164.229 h 59.112 v -25.41 h -59.112 z"
         id="path576" />
    </clipPath>
    <clipPath
       clipPathUnits="userSpaceOnUse"
       id="clipPath654">
      <path
         d="m 149.845,212.967 h 28.428 v -55.458 h -28.428 z"
         id="path652" />
    </clipPath>
  </defs>
  <sodipodi:namedview
     id="namedview4"
     pagecolor="#ffffff"
     bordercolor="#666666"
     borderopacity="1.0"
     inkscape:showpageshadow="2"
     inkscape:pageopacity="0.0"
     inkscape:pagecheckerboard="0"
     inkscape:deskcolor="#d1d1d1"
     showgrid="false" />
  <g
     id="g10"
     inkscape:groupmode="layer"
     inkscape:label="Page 1"
     transform="matrix(1.3333333,0,0,-1.3333333,0,666.66667)">
    <g
       id="g1150">
      <g
         id="g12"
         transform="translate(-4.9547104,-1.3221483)">
        <g
           id="g14"
           clip-path="url(#clipPath18)">
          <g
             id="g20"
             transform="translate(53.3317,276.1657)">
            <path
               d="m 0,0 v -47.636 c 0,-8.619 6.986,-15.606 15.605,-15.606 h 170.809 c 8.619,0 15.606,6.987 15.606,15.606 v 40.25 l 21.264,22.343 -207.63,0.648 C 7.017,15.633 0,8.638 0,0"
               style="fill:#f5f5f5;fill-opacity:1;fill-rule:nonzero;stroke:none"
               id="path22" />
          </g>
          <g
             id="g24"
             transform="translate(230.173,262.9113)">
            <path
               d="m 0,0 -154.998,0.715 0.017,4.764 L 0.016,4.763 Z"
               style="fill:#e0e0e0;fill-opacity:1;fill-rule:nonzero;stroke:none"
               id="path26" />
          </g>
          <g
             id="g28"
             transform="translate(230.173,247.238)">
            <path
               d="M 0,0 -154.998,0.716 -154.981,5.48 0.016,4.764 Z"
               style="fill:#e0e0e0;fill-opacity:1;fill-rule:nonzero;stroke:none"
               id="path30" />
          </g>
          <g
             id="g32"
             transform="translate(230.173,231.9616)">
            <path
               d="M 0,0 -61.328,0.302 -61.309,5.065 0.019,4.764 Z"
               style="fill:#e0e0e0;fill-opacity:1;fill-rule:nonzero;stroke:none"
               id="path34" />
          </g>
          <g
             id="g36"
             transform="translate(211.6017,111.5661)">
            <path
               d="m 0,0 v -47.636 c 0,-8.619 6.986,-15.605 15.605,-15.605 h 170.809 c 8.619,0 15.606,6.986 15.606,15.605 v 40.25 L 223.285,14.957 15.654,15.605 C 7.017,15.633 0,8.638 0,0"
               style="fill:#f5f5f5;fill-opacity:1;fill-rule:nonzero;stroke:none"
               id="path38" />
          </g>
          <g
             id="g40"
             transform="translate(389.1852,99.5485)">
            <path
               d="M 0,0 -154.997,0.716 -154.981,5.48 0.016,4.764 Z"
               style="fill:#e0e0e0;fill-opacity:1;fill-rule:nonzero;stroke:none"
               id="path42" />
          </g>
          <g
             id="g44"
             transform="translate(389.1852,83.8757)">
            <path
               d="M 0,0 -154.997,0.716 -154.981,5.48 0.016,4.764 Z"
               style="fill:#e0e0e0;fill-opacity:1;fill-rule:nonzero;stroke:none"
               id="path46" />
          </g>
          <g
             id="g48"
             transform="translate(389.1852,68.5993)">
            <path
               d="M 0,0 -61.327,0.302 -61.309,5.065 0.019,4.764 Z"
               style="fill:#e0e0e0;fill-opacity:1;fill-rule:nonzero;stroke:none"
               id="path50" />
          </g>
          <g
             id="g52"
             transform="translate(144.63,455.6105)">
            <path
               d="m 0,0 h 100.744 c 4.987,0 9.03,-4.042 9.03,-9.029 v -49.276 c 0,-4.987 -4.043,-9.03 -9.03,-9.03 H 15.256 c -4.987,0 -9.03,4.043 -9.03,9.03 v 52.079 z"
               style="fill:#f5f5f5;fill-opacity:1;fill-rule:nonzero;stroke:none"
               id="path54" />
          </g>
          <g
             id="g56"
             transform="translate(203.0329,407.7062)">
            <path
               d="m 0,0 v -31.595 c 0,-5.716 -4.633,-10.35 -10.35,-10.35 h -113.288 c -5.717,0 -10.351,4.634 -10.351,10.35 V -4.899 L -148.093,9.919 -10.382,10.35 C -4.654,10.368 0,5.729 0,0"
               style="fill:#e0e0e0;fill-opacity:1;fill-rule:nonzero;stroke:none"
               id="path58" />
          </g>
          <g
             id="g60"
             transform="translate(85.7438,398.9152)">
            <path
               d="M 0,0 102.801,0.475 102.791,3.634 -0.01,3.159 Z"
               style="fill:#f5f5f5;fill-opacity:1;fill-rule:nonzero;stroke:none"
               id="path62" />
          </g>
          <g
             id="g64"
             transform="translate(85.7438,388.5202)">
            <path
               d="M 0,0 102.801,0.475 102.791,3.634 -0.01,3.159 Z"
               style="fill:#f5f5f5;fill-opacity:1;fill-rule:nonzero;stroke:none"
               id="path66" />
          </g>
          <g
             id="g68"
             transform="translate(85.7438,378.3879)">
            <path
               d="M 0,0 40.675,0.2 40.663,3.359 -0.013,3.16 Z"
               style="fill:#f5f5f5;fill-opacity:1;fill-rule:nonzero;stroke:none"
               id="path70" />
          </g>
          <g
             id="g72"
             transform="translate(417.6442,261.1955)">
            <path
               d="m 0,0 v -31.594 c 0,-5.716 -4.634,-10.351 -10.351,-10.351 h -113.288 c -5.716,0 -10.35,4.635 -10.35,10.351 V -4.899 L -148.094,9.92 -10.383,10.35 C -4.654,10.368 0,5.729 0,0"
               style="fill:#e0e0e0;fill-opacity:1;fill-rule:nonzero;stroke:none"
               id="path74" />
          </g>
          <g
             id="g76"
             transform="translate(300.3541,252.4045)">
            <path
               d="M 0,0 102.802,0.475 102.791,3.634 -0.01,3.159 Z"
               style="fill:#f5f5f5;fill-opacity:1;fill-rule:nonzero;stroke:none"
               id="path78" />
          </g>
          <g
             id="g80"
             transform="translate(300.3541,242.0095)">
            <path
               d="M 0,0 102.802,0.475 102.791,3.635 -0.01,3.159 Z"
               style="fill:#f5f5f5;fill-opacity:1;fill-rule:nonzero;stroke:none"
               id="path82" />
          </g>
          <g
             id="g84"
             transform="translate(300.3541,231.8776)">
            <path
               d="M 0,0 40.676,0.2 40.663,3.359 -0.013,3.159 Z"
               style="fill:#f5f5f5;fill-opacity:1;fill-rule:nonzero;stroke:none"
               id="path86" />
          </g>
        </g>
      </g>
      <g
         id="g88">
        <g
           id="g90"
           clip-path="url(#clipPath94)">
          <g
             id="g96"
             transform="translate(422.5358,371.0016)">
            <path
               d="m 0,0 c 28.592,-56.97 19.548,-128.881 -16.187,-181.664 -35.736,-52.782 -95.187,-86.957 -157.703,-99.4 -44.625,-8.884 -92.633,-7.076 -133.408,13.118 -40.775,20.193 -72.837,60.819 -75.283,106.255 -0.923,17.162 2.717,35.385 14.169,48.199 18.287,20.462 49.506,21.182 76.934,20.338 27.43,-0.845 58.627,-0.205 77.003,20.176 14.12,15.661 16.199,38.376 23.64,58.106 12.651,33.546 43.173,59.741 78.251,67.155 4.872,1.03 9.811,1.693 14.77,2.003 38.581,2.408 75.173,-17.445 95.413,-50.379 z"
               style="fill:#ebebeb;fill-opacity:1;fill-rule:nonzero;stroke:none"
               id="path98" />
          </g>
        </g>
      </g>
      <g
         id="g100">
        <g
           id="g102"
           clip-path="url(#clipPath106)">
          <g
             id="g108"
             transform="translate(320.5992,104.3483)">
            <path
               d="m 0,0 c -16.933,16.488 -17.211,41.992 -12.806,64.155 0.736,3.699 0.969,7.689 3.273,10.663 2.304,2.974 6.799,4.529 9.873,2.415 2.55,-1.752 3.227,-5.163 4.338,-8.074 1.477,-3.873 4.061,-7.301 7.361,-9.762 2.167,-1.617 4.976,-2.848 7.525,-1.941 3.498,1.245 4.603,5.616 5.186,9.32 1.085,6.905 2.172,13.807 3.258,20.709 0.583,3.704 1.19,7.484 2.916,10.807 1.725,3.323 4.803,6.169 8.483,6.579 3.682,0.409 7.702,-2.333 7.853,-6.076 0.062,-1.558 -0.501,-3.071 -0.65,-4.624 -0.148,-1.553 0.289,-3.369 1.678,-4.036 1.405,-0.676 3.058,0.131 4.341,1.032 4.431,3.111 7.81,7.499 11.016,11.889 3.206,4.389 6.359,8.905 10.491,12.412 4.133,3.508 9.454,5.952 14.802,5.385 5.349,-0.569 10.458,-4.763 10.946,-10.184 0.489,-5.437 -3.421,-10.231 -7.424,-13.911 C 86.521,91.297 79.802,86.709 72.58,83.182 71.278,82.545 69.867,81.857 69.197,80.56 c -1.208,-2.335 0.729,-5.168 3.032,-6.378 2.607,-1.37 5.647,-1.574 8.476,-2.385 2.829,-0.813 5.746,-2.597 6.392,-5.502 0.896,-4.03 -2.916,-7.477 -6.453,-9.564 -7.083,-4.178 -14.872,-7.12 -22.918,-8.659 -2.885,-0.55 -5.893,-0.954 -8.401,-2.507 -2.508,-1.554 -4.377,-4.662 -3.477,-7.485 0.899,-2.826 4.166,-4.218 7.104,-4.155 2.937,0.061 5.742,1.191 8.627,1.772 5.4,1.086 11.908,-0.339 14.445,-5.266 1.668,-3.24 1.199,-7.293 -0.449,-10.559 C 73.93,16.605 71.248,13.999 68.469,11.646 58.754,3.419 47.061,-2.57 34.596,-4.729 22.131,-6.889 11.021,-6.206 0,0"
               style="fill:#e8505b;fill-opacity:1;fill-rule:nonzero;stroke:none"
               id="path110" />
          </g>
          <g
             id="g112"
             transform="translate(317.6012,87.8737)">
            <path
               d="m 0,0 c 2.253,8.696 5.896,18.807 11.038,29.505 5.122,10.71 11.709,21.984 19.005,33.54 1.834,2.882 3.647,5.729 5.434,8.536 1.789,2.797 3.564,5.572 5.467,8.178 3.785,5.23 7.823,9.97 11.796,14.349 3.973,4.383 7.903,8.398 11.604,12.124 3.712,3.72 7.236,7.122 10.581,10.086 6.674,5.955 12.613,10.112 16.807,12.799 2.095,1.351 3.754,2.345 4.889,3.004 0.545,0.312 0.972,0.557 1.294,0.741 0.294,0.162 0.446,0.242 0.452,0.232 0.007,-0.011 -0.135,-0.111 -0.416,-0.293 -0.313,-0.199 -0.73,-0.464 -1.26,-0.8 -1.109,-0.698 -2.744,-1.729 -4.815,-3.111 -4.143,-2.754 -10.017,-6.957 -16.63,-12.941 -3.314,-2.978 -6.81,-6.392 -10.498,-10.126 C 61.065,102.082 57.157,98.06 53.206,93.676 49.257,89.296 45.245,84.563 41.489,79.357 39.6,76.763 37.844,74.011 36.052,71.205 34.267,68.4 32.456,65.553 30.623,62.672 23.335,51.125 16.746,39.889 11.607,29.226 6.451,18.575 2.775,8.524 0.471,-0.126"
               style="fill:#263238;fill-opacity:1;fill-rule:nonzero;stroke:none"
               id="path114" />
          </g>
          <g
             id="g116"
             transform="translate(358.7438,167.6276)">
            <path
               d="m 0,0 c -0.047,0 -0.08,0.583 -0.103,1.638 -0.027,1.053 -0.015,2.58 0.027,4.466 0.08,3.769 0.368,8.971 0.707,14.705 0.34,5.737 0.554,10.928 0.576,14.689 0.016,1.88 0.015,3.402 -0.001,4.454 -0.009,1.053 0.009,1.637 0.057,1.64 0.048,0.003 0.12,-0.575 0.211,-1.627 C 1.571,38.915 1.648,37.39 1.693,35.504 1.797,31.73 1.659,26.515 1.318,20.772 0.97,15.114 0.653,9.996 0.411,6.086 0.312,4.318 0.231,2.829 0.166,1.633 0.104,0.582 0.049,-0.001 0,0"
               style="fill:#263238;fill-opacity:1;fill-rule:nonzero;stroke:none"
               id="path118" />
          </g>
          <g
             id="g120"
             transform="translate(407.7711,168.7292)">
            <path
               d="m 0,0 c -0.007,-0.047 -0.696,-0.015 -1.935,0.084 -1.239,0.091 -3.03,0.232 -5.248,0.337 -4.434,0.243 -10.571,0.364 -17.347,0.201 -6.779,-0.175 -12.906,-0.594 -17.328,-1.024 -2.215,-0.201 -4.001,-0.41 -5.238,-0.548 -1.236,-0.143 -1.923,-0.199 -1.931,-0.152 -0.007,0.048 0.668,0.195 1.894,0.421 1.228,0.22 3.011,0.505 5.225,0.77 4.422,0.557 10.566,1.056 17.365,1.231 6.796,0.162 12.954,-0.037 17.394,-0.407 C -4.928,0.745 -3.138,0.529 -1.904,0.354 -0.672,0.171 0.005,0.049 0,0"
               style="fill:#263238;fill-opacity:1;fill-rule:nonzero;stroke:none"
               id="path122" />
          </g>
          <g
             id="g124"
             transform="translate(329.3678,118.1579)">
            <path
               d="m 0,0 c -0.023,-0.006 -0.103,0.211 -0.231,0.634 -0.144,0.501 -0.32,1.113 -0.533,1.853 -0.454,1.613 -1.05,3.963 -1.751,6.876 -1.402,5.825 -3.087,13.933 -4.825,22.905 -1.739,8.975 -3.346,17.087 -4.625,22.934 -0.631,2.843 -1.15,5.182 -1.535,6.921 -0.164,0.754 -0.298,1.375 -0.407,1.886 -0.086,0.431 -0.12,0.662 -0.097,0.67 0.024,0.005 0.102,-0.213 0.232,-0.635 0.143,-0.502 0.319,-1.112 0.531,-1.854 0.455,-1.612 1.052,-3.961 1.751,-6.875 1.403,-5.825 3.088,-13.933 4.826,-22.909 C -4.925,23.434 -3.318,15.322 -2.039,9.475 -1.407,6.633 -0.89,4.293 -0.504,2.556 -0.341,1.802 -0.207,1.179 -0.097,0.67 -0.011,0.236 0.023,0.006 0,0"
               style="fill:#263238;fill-opacity:1;fill-rule:nonzero;stroke:none"
               id="path126" />
          </g>
          <g
             id="g128"
             transform="translate(395.9176,128.1813)">
            <path
               d="m 0,0 c 0.002,-0.023 -0.229,-0.076 -0.67,-0.155 -0.521,-0.085 -1.161,-0.189 -1.936,-0.316 -1.786,-0.271 -4.197,-0.638 -7.129,-1.085 -6.019,-0.918 -14.318,-2.281 -23.486,-3.799 -9.17,-1.521 -17.489,-2.808 -23.529,-3.601 -3.02,-0.398 -5.467,-0.695 -7.161,-0.865 -0.782,-0.075 -1.428,-0.135 -1.952,-0.186 -0.448,-0.035 -0.685,-0.041 -0.687,-0.016 -0.003,0.023 0.229,0.076 0.67,0.157 0.52,0.083 1.159,0.187 1.937,0.313 1.785,0.273 4.194,0.639 7.127,1.085 6.018,0.917 14.318,2.281 23.489,3.801 9.168,1.52 17.486,2.807 23.525,3.6 3.021,0.398 5.467,0.695 7.162,0.865 0.784,0.074 1.428,0.137 1.953,0.185 C -0.239,0.019 -0.004,0.024 0,0"
               style="fill:#263238;fill-opacity:1;fill-rule:nonzero;stroke:none"
               id="path130" />
          </g>
          <g
             id="g132"
             transform="translate(152.3771,329.2097)">
            <path
               d="m 0,0 c -3.091,2.397 -4.473,6.642 -3.827,10.5 0.646,3.858 3.136,7.273 6.363,9.485 1.492,1.023 3.34,1.834 5.075,1.324 1.622,-0.477 2.752,-2.055 3.081,-3.714 0.328,-1.658 -0.026,-3.381 -0.58,-4.979 C 8.215,7.136 5.374,2.181 0,0"
               style="fill:#455a64;fill-opacity:1;fill-rule:nonzero;stroke:none"
               id="path134" />
          </g>
          <g
             id="g136"
             transform="translate(147.3063,319.8488)">
            <path
               d="M 0,0 C -6.093,5.558 -14.979,7.884 -23.014,6.024 -25.06,5.55 -27.362,4.47 -27.7,2.396 c -0.337,-2.076 1.517,-3.836 3.338,-4.892 7.572,-4.39 17.83,-3.565 24.603,1.98"
               style="fill:#455a64;fill-opacity:1;fill-rule:nonzero;stroke:none"
               id="path138" />
          </g>
          <g
             id="g140"
             transform="translate(117.9498,363.1867)">
            <path
               d="m 0,0 c 3.377,0.926 7.079,0.093 10.068,-1.732 2.989,-1.826 5.327,-4.564 7.2,-7.523 3.624,-5.724 4.9,-13.418 5.062,-20.192 -7.519,0.304 -13.944,6.214 -17.015,9.416 C 0.462,-14.969 -5.236,-2.874 0,0"
               style="fill:#455a64;fill-opacity:1;fill-rule:nonzero;stroke:none"
               id="path142" />
          </g>
          <g
             id="g144"
             transform="translate(158.6774,309.6213)">
            <path
               d="m 0,0 c -0.44,0.8 -1.159,1.365 -1.875,2.834 -1.412,2.934 -3.314,7.106 -4.235,12.072 -0.919,4.973 -0.296,9.667 0.939,12.734 0.602,1.541 1.276,2.706 1.818,3.45 0.539,0.748 0.895,1.113 0.929,1.086 0.13,-0.084 -1.201,-1.662 -2.243,-4.719 -1.071,-3.027 -1.589,-7.57 -0.696,-12.416 0.898,-4.848 2.692,-9.002 3.975,-11.982"
               style="fill:#263238;fill-opacity:1;fill-rule:nonzero;stroke:none"
               id="path146" />
          </g>
          <g
             id="g148"
             transform="translate(158.7482,309.53)">
            <path
               d="m 0,0 c -1.006,1.298 -2.325,2.998 -3.915,5.049 -3.295,4.271 -7.861,10.16 -12.99,16.598 -5.129,6.435 -9.849,12.2 -13.277,16.365 -1.645,2.009 -3.007,3.673 -4.048,4.944 -0.949,1.173 -1.455,1.839 -1.416,1.873 0.041,0.034 0.622,-0.566 1.64,-1.681 1.02,-1.113 2.467,-2.75 4.235,-4.79 3.535,-4.08 8.326,-9.796 13.46,-16.237 5.134,-6.445 9.638,-12.392 12.825,-16.749 1.594,-2.178 2.865,-3.954 3.724,-5.196"
               style="fill:#263238;fill-opacity:1;fill-rule:nonzero;stroke:none"
               id="path150" />
          </g>
          <g
             id="g152"
             transform="translate(128.9865,321.4245)">
            <path
               d="m 0,0 c -0.012,0.051 0.451,0.19 1.305,0.399 0.425,0.113 0.95,0.229 1.57,0.3 0.619,0.079 1.323,0.211 2.11,0.226 1.571,0.123 3.455,0.057 5.524,-0.21 2.061,-0.31 4.303,-0.849 6.555,-1.708 2.242,-0.889 4.259,-2.007 5.989,-3.171 1.705,-1.201 3.138,-2.426 4.213,-3.578 0.57,-0.543 1,-1.116 1.402,-1.592 0.41,-0.472 0.718,-0.913 0.956,-1.283 0.488,-0.73 0.418,-1.072 0.376,-1.102 -0.121,-0.087 -0.887,1.452 -3.113,3.597 -1.102,1.082 -2.539,2.237 -4.225,3.378 -1.711,1.105 -3.686,2.176 -5.873,3.043 -2.198,0.838 -4.376,1.383 -6.384,1.725 C 8.391,0.322 6.552,0.442 5.008,0.389 1.918,0.312 0.03,-0.146 0,0"
               style="fill:#263238;fill-opacity:1;fill-rule:nonzero;stroke:none"
               id="path154" />
          </g>
        </g>
      </g>
      <g
         id="g156">
        <g
           id="g158"
           clip-path="url(#clipPath162)">
          <g
             id="g164"
             transform="translate(296.7438,66.2653)">
            <path
               d="m 0,0 -115.5,0.534 c -13.892,0.063 -25.102,11.374 -25.043,25.265 l 1.224,289.562 c 0.058,13.9 11.376,25.118 25.275,25.054 L 1.457,339.881 C 15.349,339.817 26.559,328.507 26.5,314.616 L 25.276,25.053 C 25.217,11.153 13.899,-0.064 0,0"
               style="fill:#263238;fill-opacity:1;fill-rule:nonzero;stroke:none"
               id="path166" />
          </g>
          <g
             id="g168"
             transform="translate(298.0358,396.1535)">
            <path
               d="m 0,0 -22.394,0.103 c -3.002,0.014 -5.448,-2.52 -5.46,-5.659 l -0.019,-4.062 c -0.012,-3.14 -2.458,-5.674 -5.461,-5.66 l -43.65,0.202 c -3.003,0.013 -5.427,2.57 -5.413,5.71 l 0.017,4.062 c 0.013,3.139 -2.411,5.696 -5.414,5.709 l -7.876,0.037 -19.6,0.09 c -9.734,0.045 -17.66,-7.812 -17.701,-17.546 l -1.195,-282.634 c -0.042,-9.729 7.81,-17.65 17.539,-17.695 l 115.27,-0.532 c 9.733,-0.045 17.66,7.811 17.701,17.545 l 1.195,282.635 C 17.58,-7.966 9.729,-0.045 0,0"
               style="fill:#fafafa;fill-opacity:1;fill-rule:nonzero;stroke:none"
               id="path170" />
          </g>
          <g
             id="g172"
             transform="translate(232.7999,105.3376)">
            <path
               d="m 0,0 c -0.005,-1.129 -1.074,-2.038 -2.387,-2.032 -1.313,0.006 -2.374,0.926 -2.37,2.053 0.006,1.129 1.074,2.04 2.387,2.033 C -1.057,2.048 0.004,1.129 0,0"
               style="fill:#455a64;fill-opacity:1;fill-rule:nonzero;stroke:none"
               id="path174" />
          </g>
          <g
             id="g176"
             transform="translate(240.1696,105.3034)">
            <path
               d="M 0,0 C -0.005,-1.128 -1.073,-2.038 -2.387,-2.032 -3.7,-2.026 -4.761,-1.106 -4.756,0.022 -4.752,1.15 -3.683,2.061 -2.37,2.055 -1.056,2.049 0.004,1.129 0,0"
               style="fill:#455a64;fill-opacity:1;fill-rule:nonzero;stroke:none"
               id="path178" />
          </g>
          <g
             id="g180"
             transform="translate(247.5387,105.2702)">
            <path
               d="M 0,0 C -0.004,-1.129 -1.073,-2.039 -2.387,-2.032 -3.7,-2.026 -4.761,-1.107 -4.756,0.021 -4.751,1.15 -3.683,2.06 -2.37,2.055 -1.056,2.049 0.005,1.129 0,0"
               style="fill:#455a64;fill-opacity:1;fill-rule:nonzero;stroke:none"
               id="path182" />
          </g>
          <g
             id="g184"
             transform="translate(199.5172,259.9006)">
            <path
               d="M 0,0 C 1.878,-0.269 115.185,-22.492 115.185,-22.492 V 0 Z"
               style="fill:#ebebeb;fill-opacity:1;fill-rule:nonzero;stroke:none"
               id="path186" />
          </g>
          <g
             id="g188"
             transform="translate(163.8693,117.1052)">
            <path
               d="M 0,0 C 0,0 123.256,17.437 122.183,16.901 121.11,16.364 0,16.901 0,16.901 Z"
               style="fill:#ebebeb;fill-opacity:1;fill-rule:nonzero;stroke:none"
               id="path190" />
          </g>
          <g
             id="g192"
             transform="translate(307.0084,447.0949)">
            <path
               d="m 0,0 c 0.145,0 0.261,-6.231 0.261,-13.917 0,-7.687 -0.116,-13.918 -0.261,-13.918 -0.144,0 -0.26,6.231 -0.26,13.918 C -0.26,-6.231 -0.144,0 0,0"
               style="fill:#263238;fill-opacity:1;fill-rule:nonzero;stroke:none"
               id="path194" />
          </g>
          <g
             id="g196"
             transform="translate(356.3297,415.0646)">
            <path
               d="m 0,0 c 0.059,-0.132 -5.596,-2.754 -12.627,-5.857 -7.033,-3.104 -12.78,-5.513 -12.838,-5.382 -0.058,0.132 5.595,2.754 12.628,5.858 C -5.806,-2.278 -0.058,0.131 0,0"
               style="fill:#263238;fill-opacity:1;fill-rule:nonzero;stroke:none"
               id="path198" />
          </g>
          <g
             id="g200"
             transform="translate(355.0836,463.6369)">
            <path
               d="m 0,0 c 0.016,-0.009 -0.077,-0.192 -0.268,-0.533 -0.223,-0.385 -0.506,-0.874 -0.855,-1.474 -0.746,-1.279 -1.864,-3.105 -3.262,-5.353 -2.8,-4.493 -6.83,-10.598 -11.394,-17.258 -4.566,-6.661 -8.639,-12.726 -11.516,-17.164 -1.407,-2.178 -2.559,-3.961 -3.4,-5.262 -0.382,-0.579 -0.692,-1.05 -0.938,-1.423 -0.219,-0.322 -0.342,-0.487 -0.357,-0.477 -0.015,0.009 0.077,0.192 0.268,0.532 0.224,0.386 0.506,0.874 0.855,1.475 0.746,1.278 1.864,3.104 3.262,5.353 2.799,4.492 6.831,10.598 11.396,17.26 4.563,6.659 8.637,12.723 11.514,17.161 1.407,2.178 2.559,3.961 3.4,5.263 0.382,0.579 0.692,1.05 0.938,1.422 C -0.138,-0.155 -0.016,0.01 0,0"
               style="fill:#263238;fill-opacity:1;fill-rule:nonzero;stroke:none"
               id="path202" />
          </g>
        </g>
      </g>
      <g
         id="g204">
        <g
           id="g206"
           clip-path="url(#clipPath210)">
          <g
             id="g212"
             transform="translate(424.2262,345.9079)">
            <path
               d="m 0,0 h -225.444 c -4.869,0 -8.817,-3.947 -8.817,-8.816 v -69.931 c 0,-4.869 3.948,-8.816 8.817,-8.816 h 16.795 c 1.353,-7.303 2.936,-16.517 2.936,-16.517 l 15.202,16.517 H 0 c 4.869,0 8.816,3.947 8.816,8.816 V -8.816 C 8.816,-3.947 4.869,0 0,0"
               style="fill:#e8505b;fill-opacity:1;fill-rule:nonzero;stroke:none"
               id="path214" />
          </g>
          <g
             id="g216"
             transform="translate(331.2125,307.9748)">
            <path
               d="m 0,0 c 0,-0.144 -26.833,-0.26 -59.925,-0.26 -33.102,0 -59.929,0.116 -59.929,0.26 0,0.144 26.827,0.261 59.929,0.261 C -26.833,0.261 0,0.144 0,0"
               style="fill:#f5f5f5;fill-opacity:1;fill-rule:nonzero;stroke:none"
               id="path218" />
          </g>
          <g
             id="g220"
             transform="translate(331.2125,318.7243)">
            <path
               d="m 0,0 c 0,-0.144 -26.833,-0.26 -59.925,-0.26 -33.102,0 -59.929,0.116 -59.929,0.26 0,0.144 26.827,0.26 59.929,0.26 C -26.833,0.26 0,0.144 0,0"
               style="fill:#f5f5f5;fill-opacity:1;fill-rule:nonzero;stroke:none"
               id="path222" />
          </g>
          <g
             id="g224"
             transform="translate(331.2125,297.3439)">
            <path
               d="m 0,0 c 0,-0.144 -26.833,-0.261 -59.925,-0.261 -33.102,0 -59.929,0.117 -59.929,0.261 0,0.144 26.827,0.26 59.929,0.26 C -26.833,0.26 0,0.144 0,0"
               style="fill:#f5f5f5;fill-opacity:1;fill-rule:nonzero;stroke:none"
               id="path226" />
          </g>
          <g
             id="g228"
             transform="translate(289.8649,286.3317)">
            <path
               d="m 0,0 c 0,-0.144 -17.576,-0.261 -39.251,-0.261 -21.684,0 -39.255,0.117 -39.255,0.261 0,0.144 17.571,0.26 39.255,0.26 C -17.576,0.26 0,0.144 0,0"
               style="fill:#f5f5f5;fill-opacity:1;fill-rule:nonzero;stroke:none"
               id="path230" />
          </g>
          <g
             id="g232"
             transform="translate(322.3649,220.1843)">
            <path
               d="m 0,0 h -227.295 c -3.406,0 -6.168,-2.762 -6.168,-6.168 v -73.986 c 0,-3.408 2.762,-6.169 6.168,-6.169 h 165.079 l 15.028,-16.327 c 0,0 1.576,9.176 2.904,16.327 H 0 c 3.406,0 6.168,2.761 6.168,6.169 V -6.168 C 6.168,-2.762 3.406,0 0,0"
               style="fill:#455a64;fill-opacity:1;fill-rule:nonzero;stroke:none"
               id="path234" />
          </g>
          <g
             id="g236"
             transform="translate(313.4489,182.0319)">
            <path
               d="m 0,0 c 0,-0.144 -26.833,-0.26 -59.924,-0.26 -33.103,0 -59.93,0.116 -59.93,0.26 0,0.144 26.827,0.261 59.93,0.261 C -26.833,0.261 0,0.144 0,0"
               style="fill:#f5f5f5;fill-opacity:1;fill-rule:nonzero;stroke:none"
               id="path238" />
          </g>
          <g
             id="g240"
             transform="translate(313.4489,192.7819)">
            <path
               d="m 0,0 c 0,-0.145 -26.833,-0.261 -59.924,-0.261 -33.103,0 -59.93,0.116 -59.93,0.261 0,0.144 26.827,0.26 59.93,0.26 C -26.833,0.26 0,0.144 0,0"
               style="fill:#f5f5f5;fill-opacity:1;fill-rule:nonzero;stroke:none"
               id="path242" />
          </g>
          <g
             id="g244"
             transform="translate(313.4489,171.4011)">
            <path
               d="m 0,0 c 0,-0.144 -26.833,-0.261 -59.924,-0.261 -33.103,0 -59.93,0.117 -59.93,0.261 0,0.144 26.827,0.261 59.93,0.261 C -26.833,0.261 0,0.144 0,0"
               style="fill:#f5f5f5;fill-opacity:1;fill-rule:nonzero;stroke:none"
               id="path246" />
          </g>
          <g
             id="g248"
             transform="translate(272.1012,160.3884)">
            <path
               d="m 0,0 c 0,-0.144 -17.576,-0.26 -39.251,-0.26 -21.684,0 -39.255,0.116 -39.255,0.26 0,0.145 17.571,0.261 39.255,0.261 C -17.576,0.261 0,0.145 0,0"
               style="fill:#f5f5f5;fill-opacity:1;fill-rule:nonzero;stroke:none"
               id="path250" />
          </g>
        </g>
      </g>
      <g
         id="g252">
        <g
           id="g254"
           clip-path="url(#clipPath258)">
          <g
             id="g260"
             transform="translate(367.5533,375.569)">
            <path
               d="m 0,0 c 0.134,1.838 -1.505,4.373 -3.024,5.83 -1.52,1.456 -2.461,3.433 -1.669,6.371 0.612,2.27 2.051,2.101 2.621,3.435 0.421,0.989 0.243,2.115 0.331,3.186 0.298,3.677 4.344,6.559 7.916,5.64 1.006,3.496 4.266,6.227 7.885,6.604 3.619,0.377 7.372,-1.624 9.076,-4.838 2.065,1.073 4.669,1.036 6.702,-0.096 2.034,-1.132 3.437,-3.324 3.613,-5.645 2.014,1.454 5.103,0.894 6.696,-1.011 1.593,-1.906 1.691,-4.822 0.482,-6.992 -1.21,-2.169 -3.556,-3.581 -6.01,-3.958 -2.455,-0.377 -4.993,0.203 -7.216,1.311 -2.222,1.108 -4.158,2.722 -5.92,4.472"
               style="fill:#263238;fill-opacity:1;fill-rule:nonzero;stroke:none"
               id="path262" />
          </g>
          <g
             id="g264"
             transform="translate(427.193,302.9318)">
            <path
               d="m 0,0 c 0,-23.348 -19.382,-42.275 -43.29,-42.275 -23.908,0 -43.29,18.927 -43.29,42.275 0,23.348 19.382,42.275 43.29,42.275 C -19.382,42.275 0,23.348 0,0"
               style="fill:#e0e0e0;fill-opacity:1;fill-rule:nonzero;stroke:none"
               id="path266" />
          </g>
          <g
             id="g268"
             transform="translate(427.3698,302.8962)">
            <path
               d="M 0,0 -4.791,12.287 -21.965,1.497 -6.662,-22.099 c 0,0 6.225,8.085 6.662,22.099"
               style="fill:#eb996e;fill-opacity:1;fill-rule:nonzero;stroke:none"
               id="path270" />
          </g>
          <g
             id="g272"
             transform="translate(379.9606,329.4987)">
            <path
               d="m 0,0 v 0 c 6.172,-0.01 11.264,4.784 11.568,10.893 0.254,5.087 0.467,9.987 0.467,9.987 0,0 9.446,0.684 10.319,9.92 0.871,9.235 0.99,30.593 0.99,30.593 -10.421,5.47 -23.012,4.923 -32.907,-1.43 l -0.898,-0.577 -1.092,-47.793 C -11.623,5.219 -6.432,0.01 0,0"
               style="fill:#ffbe9d;fill-opacity:1;fill-rule:nonzero;stroke:none"
               id="path274" />
          </g>
          <g
             id="g276"
             transform="translate(385.3824,376.6848)">
            <path
               d="M 0,0 C 0.712,-0.234 1.098,-0.997 0.862,-1.703 0.626,-2.408 -0.144,-2.791 -0.855,-2.557 -1.568,-2.322 -1.954,-1.56 -1.718,-0.854 -1.482,-0.148 -0.713,0.234 0,0"
               style="fill:#263238;fill-opacity:1;fill-rule:nonzero;stroke:none"
               id="path278" />
          </g>
          <g
             id="g280"
             transform="translate(387.9703,376.2048)">
            <path
               d="m 0,0 c -0.156,-0.152 -1.031,0.603 -2.317,0.685 -1.286,0.101 -2.26,-0.521 -2.392,-0.349 -0.065,0.077 0.098,0.357 0.523,0.641 0.418,0.281 1.123,0.534 1.924,0.477 C -1.46,1.397 -0.8,1.046 -0.427,0.708 -0.046,0.368 0.075,0.066 0,0"
               style="fill:#263238;fill-opacity:1;fill-rule:nonzero;stroke:none"
               id="path282" />
          </g>
          <g
             id="g284"
             transform="translate(399.4811,376.6848)">
            <path
               d="M 0,0 C 0.712,-0.234 1.098,-0.997 0.862,-1.703 0.626,-2.408 -0.144,-2.791 -0.855,-2.557 -1.568,-2.322 -1.954,-1.56 -1.718,-0.854 -1.481,-0.148 -0.713,0.234 0,0"
               style="fill:#263238;fill-opacity:1;fill-rule:nonzero;stroke:none"
               id="path286" />
          </g>
          <g
             id="g288"
             transform="translate(402.2418,376.176)">
            <path
               d="m 0,0 c -0.156,-0.151 -1.031,0.603 -2.317,0.685 -1.286,0.101 -2.26,-0.521 -2.392,-0.349 -0.065,0.078 0.098,0.358 0.523,0.641 0.419,0.281 1.123,0.535 1.924,0.478 C -1.46,1.397 -0.8,1.046 -0.427,0.708 -0.046,0.368 0.075,0.067 0,0"
               style="fill:#263238;fill-opacity:1;fill-rule:nonzero;stroke:none"
               id="path290" />
          </g>
          <g
             id="g292"
             transform="translate(392.5387,366.1901)">
            <path
               d="M 0,0 C -0.001,0.101 0.807,0.196 2.113,0.269 2.452,0.278 2.723,0.332 2.761,0.509 2.838,0.706 2.737,1.072 2.599,1.482 2.337,2.351 2.072,3.23 1.794,4.151 0.692,7.95 -0.043,11.074 0.151,11.129 0.346,11.185 1.396,8.151 2.499,4.352 2.757,3.425 3.004,2.541 3.248,1.667 3.34,1.272 3.536,0.803 3.318,0.268 3.203,0 2.922,-0.178 2.695,-0.217 2.468,-0.266 2.278,-0.251 2.116,-0.245 0.81,-0.187 0.001,-0.1 0,0"
               style="fill:#263238;fill-opacity:1;fill-rule:nonzero;stroke:none"
               id="path294" />
          </g>
          <g
             id="g296"
             transform="translate(392.0211,350.5109)">
            <path
               d="m 0,0 c 0,0 -5.934,0 -11.88,4.406 0,0 2.33,-6.885 11.706,-6.803 z"
               style="fill:#eb996e;fill-opacity:1;fill-rule:nonzero;stroke:none"
               id="path298" />
          </g>
          <g
             id="g300"
             transform="translate(369.2731,375.3205)">
            <path
               d="M 0,0 C 0.01,0.747 -0.567,1.392 -1.32,1.427 -3.062,1.508 -5.926,0.878 -6.286,-3.882 -6.801,-10.684 -0.16,-9.113 -0.133,-8.919 -0.112,-8.768 -0.033,-2.646 0,0"
               style="fill:#ffbe9d;fill-opacity:1;fill-rule:nonzero;stroke:none"
               id="path302" />
          </g>
          <g
             id="g304"
             transform="translate(367.6783,369.1066)">
            <path
               d="m 0,0 c -0.028,0.024 -0.126,-0.074 -0.335,-0.151 -0.204,-0.075 -0.547,-0.111 -0.894,0.048 -0.706,0.318 -1.23,1.505 -1.17,2.733 0.029,0.62 0.205,1.2 0.462,1.671 0.248,0.482 0.599,0.805 0.968,0.843 0.37,0.056 0.613,-0.18 0.682,-0.378 C -0.21,4.569 -0.264,4.437 -0.229,4.422 -0.21,4.404 -0.072,4.525 -0.106,4.81 -0.125,4.947 -0.192,5.114 -0.344,5.256 -0.499,5.401 -0.735,5.487 -0.992,5.479 -1.524,5.482 -2.037,5.035 -2.32,4.518 -2.634,4 -2.846,3.35 -2.879,2.653 -2.938,1.28 -2.328,-0.056 -1.357,-0.414 -0.884,-0.575 -0.471,-0.461 -0.25,-0.316 -0.024,-0.164 0.022,-0.014 0,0"
               style="fill:#eb996e;fill-opacity:1;fill-rule:nonzero;stroke:none"
               id="path306" />
          </g>
          <g
             id="g308"
             transform="translate(381.8824,379.8268)">
            <path
               d="M 0,0 C 0.339,-0.436 1.522,-0.232 3.059,-0.167 4.592,-0.043 5.792,-0.102 6.071,0.372 6.389,0.866 4.904,2 2.927,1.837 0.945,1.756 -0.379,0.451 0,0"
               style="fill:#263238;fill-opacity:1;fill-rule:nonzero;stroke:none"
               id="path310" />
          </g>
          <g
             id="g312"
             transform="translate(396.858,380.279)">
            <path
               d="m 0,0 c 0.186,-0.593 1.312,-0.771 2.562,-0.764 1.25,0.025 2.372,0.233 2.542,0.831 C 5.28,0.649 4.146,1.484 2.535,1.461 0.925,1.441 -0.189,0.577 0,0"
               style="fill:#263238;fill-opacity:1;fill-rule:nonzero;stroke:none"
               id="path314" />
          </g>
          <g
             id="g316"
             transform="translate(404.6178,387.967)">
            <path
               d="m 0,0 c 0,0 -5.604,-2.713 -12.897,0.927 -4.787,2.389 -10.365,3.556 -11.595,2.594 -1.23,-0.962 -1.489,-5.894 -6.231,-7.334 0,0 0.327,-9.408 -3.424,-9.072 -3.752,0.335 -1.408,14.907 -1.408,14.907 l 9.177,4.482 10.015,1.892 9.436,-1.33 7.302,-1.999 z"
               style="fill:#263238;fill-opacity:1;fill-rule:nonzero;stroke:none"
               id="path318" />
          </g>
          <g
             id="g320"
             transform="translate(341.8121,333.5226)">
            <path
               d="m 0,0 c 9.806,10.085 27.067,8.985 27.067,8.985 l 14.308,-10.243 8.113,9.446 c 0,0 8.527,-0.936 16.517,-5.11 l 0.55,-0.171 -0.007,-0.114 c 6.275,-3.408 15.163,-11.582 23.629,-19.514 l -10.131,-9.402 -11.214,-9.954 c 0,0 0.044,-0.071 0.02,-0.199 -0.118,-0.603 1.559,-14.295 3.275,-24.701 -10.213,-9.745 -23.23,-13.917 -37.682,-11.384 -4.586,0.804 -6.806,1.922 -11.053,3.036 -6.279,1.647 -10.829,7.09 -11.392,13.556 -0.765,8.721 -1.347,19.519 -1.347,19.519"
               style="fill:#455a64;fill-opacity:1;fill-rule:nonzero;stroke:none"
               id="path322" />
          </g>
          <g
             id="g324"
             transform="translate(400.2721,339.9518)">
            <path
               d="m 0,0 c 0.034,0.011 0.252,-0.562 0.616,-1.609 0.367,-1.047 0.866,-2.571 1.455,-4.463 1.182,-3.783 2.686,-9.052 4.108,-14.931 1.419,-5.883 2.485,-11.258 3.161,-15.163 0.338,-1.953 0.59,-3.537 0.74,-4.635 0.154,-1.097 0.222,-1.707 0.187,-1.713 -0.036,-0.006 -0.171,0.593 -0.386,1.68 -0.231,1.171 -0.535,2.723 -0.903,4.601 C 8.21,-32.35 7.089,-26.998 5.673,-21.125 4.253,-15.256 2.809,-9.983 1.719,-6.177 1.189,-4.338 0.753,-2.818 0.423,-1.67 0.118,-0.605 -0.034,-0.011 0,0"
               style="fill:#263238;fill-opacity:1;fill-rule:nonzero;stroke:none"
               id="path326" />
          </g>
          <g
             id="g328"
             transform="translate(409.484,303.8996)">
            <path
               d="m 0,0 c -0.091,0.111 4.187,3.747 9.554,8.119 5.369,4.374 9.793,7.828 9.883,7.716 C 19.528,15.724 15.251,12.089 9.883,7.715 4.517,3.343 0.091,-0.112 0,0"
               style="fill:#263238;fill-opacity:1;fill-rule:nonzero;stroke:none"
               id="path330" />
          </g>
          <g
             id="g332">
            <g
               id="g334" />
            <g
               id="g346">
              <g
                 clip-path="url(#clipPath338)"
                 opacity="0.199997"
                 id="g344">
                <g
                   transform="translate(354.7565,319.6799)"
                   id="g342">
                  <path
                     d="m 0,0 -8.777,-28.875 3.265,-1.698 3.221,8.166 c 0,0 3.31,17.155 2.291,22.407"
                     style="fill:#000000;fill-opacity:1;fill-rule:nonzero;stroke:none"
                     id="path340" />
                </g>
              </g>
            </g>
          </g>
          <g
             id="g348">
            <g
               id="g350" />
            <g
               id="g362">
              <g
                 clip-path="url(#clipPath354)"
                 opacity="0.199997"
                 id="g360">
                <g
                   transform="translate(399.3209,339.9343)"
                   id="g358">
                  <path
                     d="m 0,0 c 4.731,-2.495 -7.127,-8.497 -12.482,-8.335 l 3.888,10.262 c 0,0 7.006,-1.09 8.594,-1.927"
                     style="fill:#000000;fill-opacity:1;fill-rule:nonzero;stroke:none"
                     id="path356" />
                </g>
              </g>
            </g>
          </g>
          <g
             id="g364"
             transform="translate(367.4684,341.861)">
            <path
               d="m 0,0 v 7.646 c 0,0 14.935,-3.843 15.477,-12.779 0,0 1.899,9.878 9.593,10.351 l 1.087,-13.893 -8.954,-7.791 H 8.128 L 0.939,-10.265 0,-0.617"
               style="fill:#455a64;fill-opacity:1;fill-rule:nonzero;stroke:none"
               id="path366" />
          </g>
          <g
             id="g368"
             transform="translate(386.3053,293.8679)">
            <path
               d="m 0,0 c -0.035,0.002 -0.043,0.588 -0.025,1.645 0.021,1.056 0.041,2.585 0.046,4.473 0.012,3.776 -0.106,8.993 -0.58,14.733 -0.479,5.741 -1.224,10.906 -1.86,14.628 -0.318,1.792 -0.583,3.276 -0.783,4.405 -0.192,1.039 -0.281,1.618 -0.246,1.626 0.035,0.008 0.191,-0.557 0.444,-1.584 0.257,-1.027 0.584,-2.523 0.947,-4.381 0.731,-3.713 1.536,-8.89 2.018,-14.651 C 0.437,15.134 0.496,9.896 0.389,6.112 0.337,4.221 0.261,2.69 0.177,1.636 0.098,0.58 0.036,-0.002 0,0"
               style="fill:#263238;fill-opacity:1;fill-rule:nonzero;stroke:none"
               id="path370" />
          </g>
          <g
             id="g372"
             transform="translate(382.2574,339.3)">
            <path
               d="m 0,0 c -0.006,-0.044 -0.339,0.129 -0.886,-0.082 -0.571,-0.185 -1.081,-0.895 -1.499,-1.909 -0.917,-1.988 -2.052,-4.852 -2.841,-8.262 l -0.079,-0.341 -0.301,0.181 c -0.893,0.539 -1.808,1.122 -2.729,1.747 -1.785,1.215 -3.417,2.453 -4.843,3.679 -0.717,0.617 -1.308,1.365 -1.648,2.159 -0.335,0.795 -0.466,1.59 -0.503,2.306 -0.059,1.439 0.177,2.573 0.331,3.344 0.168,0.773 0.295,1.19 0.328,1.183 0.037,-0.007 -0.023,-0.44 -0.128,-1.217 -0.093,-0.775 -0.267,-1.909 -0.164,-3.286 0.059,-0.685 0.205,-1.429 0.53,-2.154 0.332,-0.724 0.87,-1.386 1.572,-1.974 1.412,-1.18 3.051,-2.408 4.817,-3.609 0.913,-0.619 1.819,-1.201 2.701,-1.742 l -0.38,-0.159 c 0.825,3.449 2.034,6.324 3.039,8.289 0.247,0.49 0.488,0.944 0.787,1.287 0.292,0.348 0.647,0.56 0.953,0.646 C -0.31,0.263 0.024,0.008 0,0"
               style="fill:#263238;fill-opacity:1;fill-rule:nonzero;stroke:none"
               id="path374" />
          </g>
          <g
             id="g376"
             transform="translate(392.5387,347.0793)">
            <path
               d="m 0,0 c 0.036,0.001 0.082,-0.424 0.141,-1.194 0.064,-0.877 0.143,-1.965 0.238,-3.254 0.112,-1.372 0.278,-3 0.558,-4.794 0.11,-0.885 0.421,-1.847 0.18,-2.935 -0.309,-1.069 -1.113,-1.866 -1.965,-2.51 -1.196,-0.888 -2.446,-1.554 -3.286,-2.495 l -0.397,-0.446 -0.039,0.595 c -0.208,3.158 -1.263,5.757 -2.206,7.447 -0.95,1.703 -1.733,2.579 -1.671,2.628 0.02,0.019 0.234,-0.183 0.59,-0.589 0.352,-0.41 0.835,-1.036 1.353,-1.881 1.037,-1.675 2.187,-4.318 2.433,-7.571 l -0.437,0.149 c 0.913,1.037 2.205,1.725 3.347,2.579 0.813,0.606 1.531,1.357 1.784,2.221 0.213,0.876 -0.051,1.831 -0.16,2.737 -0.257,1.814 -0.386,3.46 -0.451,4.841 -0.066,1.381 -0.077,2.499 -0.074,3.271 0.004,0.772 0.027,1.2 0.062,1.201"
               style="fill:#263238;fill-opacity:1;fill-rule:nonzero;stroke:none"
               id="path378" />
          </g>
          <g
             id="g380"
             transform="translate(440.6071,345.1603)">
            <path
               d="m 0,0 c -0.606,-0.715 -22.593,-30.114 -22.593,-30.114 l 3.095,-1.754 22.561,29.025 z"
               style="fill:#263238;fill-opacity:1;fill-rule:nonzero;stroke:none"
               id="path382" />
          </g>
          <g
             id="g384"
             transform="translate(352.2838,321.9172)">
            <path
               d="m 0,0 c 0,0 23.129,-33.294 24.523,-33.948 2.746,-1.289 34.388,26.055 37.406,28.672 0.415,0.555 1.274,1.728 2.959,4.06 0,0 2.497,11.424 5.161,10.546 2.664,-0.877 -1.46,-5.805 0.275,-10.145 1.735,-4.341 9.681,6.012 9.999,6.941 l 2.05,2.678 c 0,0 2.148,-6.093 2.003,-8.637 -0.467,-8.15 -8.178,-17.843 -8.178,-17.843 0,0 -34.63,-42.898 -58.35,-44.229 -6.832,-0.384 -18.973,19.002 -27.09,33.538 -4.902,8.779 -2.455,19.837 5.668,25.761 z"
               style="fill:#ffbe9d;fill-opacity:1;fill-rule:nonzero;stroke:none"
               id="path386" />
          </g>
          <g
             id="g388"
             transform="translate(432.7672,320.6354)">
            <path
               d="M 0,0 C -0.077,0.047 0.664,1.356 1.482,3.016 2.305,4.674 2.896,6.057 2.98,6.024 3.058,5.997 2.593,4.551 1.762,2.877 0.936,1.202 0.069,-0.044 0,0"
               style="fill:#eb996e;fill-opacity:1;fill-rule:nonzero;stroke:none"
               id="path390" />
          </g>
          <g
             id="g392"
             transform="translate(348.3688,338.1652)">
            <path
               d="m 0,0 c 0,0 -24.826,-8.826 -6.368,-50.574 l 28.658,17.297 -4.076,9.762 z"
               style="fill:#455a64;fill-opacity:1;fill-rule:nonzero;stroke:none"
               id="path394" />
          </g>
          <g
             id="g396"
             transform="translate(346.4664,337.4431)">
            <path
               d="m 0,0 c 0,0 1.083,0.179 2.989,-0.251 0.94,-0.242 2.071,-0.658 3.255,-1.374 1.188,-0.711 2.42,-1.711 3.617,-2.968 2.41,-2.511 4.659,-6.016 6.743,-10.075 2.101,-4.059 4.06,-8.682 6.071,-13.54 0.601,-1.455 1.194,-2.889 1.757,-4.248 l 0.089,-0.214 -0.205,-0.112 c -8.291,-4.52 -15.511,-8.753 -20.615,-11.921 -2.553,-1.58 -4.587,-2.88 -5.982,-3.783 -0.668,-0.429 -1.201,-0.771 -1.609,-1.033 -0.369,-0.231 -0.567,-0.346 -0.576,-0.333 -0.01,0.014 0.17,0.156 0.522,0.414 0.352,0.256 0.872,0.637 1.557,1.108 1.366,0.954 3.372,2.299 5.904,3.921 5.06,3.249 12.259,7.542 20.551,12.081 l -0.114,-0.326 c -0.563,1.358 -1.158,2.792 -1.761,4.247 -2.008,4.856 -3.95,9.472 -6.015,13.52 -2.051,4.049 -4.246,7.538 -6.584,10.041 C 8.432,-3.593 7.239,-2.593 6.092,-1.874 4.945,-1.148 3.853,-0.715 2.938,-0.447 1.084,0.036 -0.005,-0.072 0,0"
               style="fill:#263238;fill-opacity:1;fill-rule:nonzero;stroke:none"
               id="path398" />
          </g>
          <g
             id="g400"
             transform="translate(399.8707,399.3386)">
            <path
               d="m 0,0 c 0.018,0.003 0.06,-0.145 0.123,-0.436 0.046,-0.291 0.108,-0.73 0.072,-1.295 -0.055,-1.11 -0.459,-2.83 -1.893,-4.33 -1.387,-1.503 -4.024,-2.452 -6.682,-1.687 -1.302,0.38 -2.616,1.172 -3.421,2.48 -0.39,0.647 -0.625,1.452 -0.512,2.258 0.109,0.789 0.506,1.589 1.228,2.063 0.722,0.489 1.669,0.475 2.4,0.155 0.742,-0.315 1.354,-0.919 1.641,-1.65 0.586,-1.467 0.154,-3.054 -0.656,-4.156 -1.723,-2.28 -4.834,-2.464 -6.558,-1.425 -0.91,0.418 -1.713,0.812 -2.47,0.947 -0.752,0.155 -1.421,0.023 -1.911,-0.201 -0.98,-0.472 -1.377,-0.994 -1.423,-0.937 -0.012,0.013 0.088,0.13 0.293,0.344 0.102,0.109 0.228,0.244 0.409,0.368 0.173,0.135 0.373,0.29 0.635,0.409 0.502,0.266 1.233,0.443 2.046,0.304 0.816,-0.118 1.662,-0.507 2.569,-0.897 0.456,-0.185 0.932,-0.385 1.442,-0.477 0.5,-0.086 1.06,-0.076 1.61,0.03 1.103,0.198 2.233,0.802 2.971,1.819 0.724,0.994 1.082,2.441 0.572,3.676 -0.447,1.207 -2.128,2.024 -3.285,1.256 -0.564,-0.367 -0.908,-1.03 -1,-1.697 -0.095,-0.672 0.095,-1.35 0.438,-1.928 0.703,-1.162 1.912,-1.919 3.117,-2.281 2.471,-0.736 4.951,0.105 6.285,1.486 1.389,1.383 1.84,3.015 1.953,4.087 C 0.111,-0.619 -0.058,-0.007 0,0"
               style="fill:#455a64;fill-opacity:1;fill-rule:nonzero;stroke:none"
               id="path402" />
          </g>
          <g
             id="g404"
             transform="translate(394.4645,361.6291)">
            <path
               d="m 0,0 c 0.011,-0.063 -0.308,-0.195 -0.857,-0.218 -0.546,-0.026 -1.321,0.096 -2.077,0.475 -0.754,0.382 -1.313,0.932 -1.617,1.386 -0.308,0.456 -0.391,0.79 -0.335,0.818 0.132,0.08 0.798,-1.059 2.187,-1.739 C -1.327,0.01 -0.015,0.153 0,0"
               style="fill:#263238;fill-opacity:1;fill-rule:nonzero;stroke:none"
               id="path406" />
          </g>
          <g
             id="g408"
             transform="translate(368.2408,366.05)">
            <path
               d="m 0,0 c 0.045,0.043 0.326,-0.44 -0.036,-1.128 -0.177,-0.322 -0.512,-0.67 -1.02,-0.809 -0.51,-0.143 -1.117,0.025 -1.552,0.407 -0.44,0.379 -0.684,0.943 -0.659,1.452 0.016,0.508 0.23,0.918 0.457,1.197 0.48,0.565 0.968,0.617 0.977,0.56 0.037,-0.075 -0.354,-0.252 -0.679,-0.775 -0.336,-0.495 -0.467,-1.449 0.245,-2.041 0.328,-0.285 0.751,-0.409 1.101,-0.333 0.355,0.072 0.644,0.305 0.818,0.538 C 0.016,-0.445 -0.082,-0.011 0,0"
               style="fill:#263238;fill-opacity:1;fill-rule:nonzero;stroke:none"
               id="path410" />
          </g>
          <g
             id="g412"
             transform="translate(401.5172,395.9704)">
            <path
               d="m 0,0 c 0.047,0.024 0.416,-0.64 0.481,-1.837 0.075,-1.172 -0.265,-2.915 -1.484,-4.329 -1.226,-1.406 -2.904,-1.989 -4.075,-2.082 -1.193,-0.105 -1.903,0.166 -1.886,0.216 0.012,0.089 0.727,-0.043 1.837,0.149 1.095,0.178 2.613,0.777 3.731,2.059 1.11,1.287 1.488,2.875 1.508,3.984 C 0.146,-0.714 -0.087,-0.025 0,0"
               style="fill:#455a64;fill-opacity:1;fill-rule:nonzero;stroke:none"
               id="path414" />
          </g>
          <g
             id="g416"
             transform="translate(367.6998,312.3015)">
            <path
               d="m 0,0 c 0.063,-0.129 -6.53,-3.52 -14.727,-7.572 -8.198,-4.054 -14.894,-7.235 -14.958,-7.106 -0.063,0.129 6.53,3.519 14.728,7.573 C -6.761,-3.053 -0.063,0.129 0,0"
               style="fill:#e0e0e0;fill-opacity:1;fill-rule:nonzero;stroke:none"
               id="path418" />
          </g>
          <g
             id="g420"
             transform="translate(361.6901,323.6428)">
            <path
               d="m 0,0 c 0.068,-0.127 -5.802,-3.409 -13.108,-7.331 -7.31,-3.923 -13.288,-7 -13.357,-6.873 -0.067,0.127 5.801,3.409 13.111,7.332 C -6.048,-2.951 -0.068,0.126 0,0"
               style="fill:#e0e0e0;fill-opacity:1;fill-rule:nonzero;stroke:none"
               id="path422" />
          </g>
          <g
             id="g424"
             transform="translate(355.8844,332.8141)">
            <path
               d="m 0,0 c 0.034,-0.065 -1.097,-0.714 -2.937,-1.737 -1.965,-1.097 -4.441,-2.478 -7.178,-4.006 -2.725,-1.553 -5.187,-2.957 -7.143,-4.072 -1.827,-1.045 -2.967,-1.677 -3.006,-1.614 -0.036,0.059 1.035,0.803 2.817,1.929 1.78,1.127 4.274,2.63 7.076,4.211 2.801,1.58 5.378,2.936 7.263,3.877 C -1.223,-0.47 -0.031,0.062 0,0"
               style="fill:#e0e0e0;fill-opacity:1;fill-rule:nonzero;stroke:none"
               id="path426" />
          </g>
          <g
             id="g428"
             transform="translate(377.8453,334.9826)">
            <path
               d="m 0,0 c -0.014,-0.06 -0.783,0.041 -1.932,0.52 -1.148,0.469 -2.634,1.372 -4.044,2.632 -1.409,1.26 -2.502,2.571 -3.26,3.532 -0.756,0.965 -1.183,1.593 -1.129,1.638 0.056,0.047 0.585,-0.499 1.409,-1.4 0.827,-0.896 1.95,-2.151 3.327,-3.38 1.374,-1.23 2.775,-2.147 3.853,-2.688 C -0.702,0.304 0.022,0.08 0,0"
               style="fill:#e0e0e0;fill-opacity:1;fill-rule:nonzero;stroke:none"
               id="path430" />
          </g>
          <g
             id="g432"
             transform="translate(392.4332,340.3991)">
            <path
               d="m 0,0 c 0.126,-0.037 -0.479,-1.664 -2.077,-2.997 -1.586,-1.348 -3.293,-1.668 -3.308,-1.536 -0.051,0.149 1.489,0.667 2.972,1.934 C -0.912,-1.353 -0.139,0.075 0,0"
               style="fill:#e0e0e0;fill-opacity:1;fill-rule:nonzero;stroke:none"
               id="path434" />
          </g>
          <g
             id="g436"
             transform="translate(418.4362,325.3503)">
            <path
               d="m 0,0 c 0.001,-0.018 -0.19,-0.053 -0.558,-0.104 -0.424,-0.052 -0.957,-0.118 -1.608,-0.198 -1.398,-0.155 -3.426,-0.35 -5.934,-0.545 -5.016,-0.4 -11.956,-0.792 -19.627,-1.071 -7.672,-0.268 -14.624,-0.372 -19.655,-0.331 -2.515,0.016 -4.552,0.066 -5.957,0.12 -0.655,0.034 -1.19,0.061 -1.618,0.083 -0.37,0.025 -0.564,0.046 -0.564,0.065 10e-4,0.018 0.196,0.031 0.566,0.04 0.428,0.004 0.964,0.009 1.619,0.015 1.479,0.011 3.494,0.027 5.953,0.046 5.027,0.052 11.97,0.214 19.638,0.483 7.665,0.279 14.602,0.612 19.62,0.918 2.454,0.156 4.466,0.285 5.94,0.379 0.656,0.04 1.19,0.074 1.618,0.1 0.37,0.018 0.565,0.018 0.567,0"
               style="fill:#e0e0e0;fill-opacity:1;fill-rule:nonzero;stroke:none"
               id="path438" />
          </g>
          <g
             id="g440"
             transform="translate(410.5387,313.4924)">
            <path
               d="m 0,0 c 0.004,-0.036 -0.582,-0.126 -1.644,-0.259 -1.061,-0.132 -2.6,-0.298 -4.505,-0.469 -3.81,-0.351 -9.082,-0.714 -14.914,-0.951 -5.834,-0.234 -11.121,-0.298 -14.946,-0.255 -1.912,0.017 -3.46,0.058 -4.528,0.104 -1.069,0.047 -1.659,0.09 -1.658,0.126 0,0.036 0.591,0.061 1.661,0.077 1.157,0.016 2.682,0.036 4.524,0.061 3.822,0.052 9.099,0.174 14.925,0.407 5.825,0.237 11.095,0.541 14.907,0.798 1.838,0.124 3.361,0.226 4.516,0.304 C -0.596,0.014 -0.004,0.036 0,0"
               style="fill:#e0e0e0;fill-opacity:1;fill-rule:nonzero;stroke:none"
               id="path442" />
          </g>
          <g
             id="g444"
             transform="translate(392.6139,298.8664)">
            <path
               d="m 0,0 c 0.006,-0.07 -1.259,-0.256 -3.314,-0.467 -2.055,-0.212 -4.902,-0.44 -8.05,-0.597 -3.15,-0.156 -6.004,-0.212 -8.071,-0.206 -2.066,0.006 -3.343,0.066 -3.343,0.136 -0.001,0.074 1.275,0.145 3.337,0.233 2.21,0.098 4.983,0.221 8.051,0.357 3.066,0.169 5.837,0.322 8.046,0.444 C -1.284,0.017 -0.007,0.073 0,0"
               style="fill:#e0e0e0;fill-opacity:1;fill-rule:nonzero;stroke:none"
               id="path446" />
          </g>
          <g
             id="g448"
             transform="translate(369.6979,333.5729)">
            <path
               d="m 0,0 c -0.003,-0.149 -3.071,-0.182 -6.846,-0.34 -3.777,-0.152 -6.836,-0.371 -6.852,-0.223 -0.016,0.138 3.034,0.59 6.831,0.743 C -3.072,0.339 0.005,0.138 0,0"
               style="fill:#e0e0e0;fill-opacity:1;fill-rule:nonzero;stroke:none"
               id="path450" />
          </g>
          <g
             id="g452"
             transform="translate(411.8854,334.113)">
            <path
               d="m 0,0 c -0.001,-0.144 -3.979,-0.245 -8.887,-0.227 -4.908,0.019 -8.884,0.15 -8.884,0.294 0,0.144 3.978,0.245 8.886,0.227 C -3.978,0.275 0,0.144 0,0"
               style="fill:#e0e0e0;fill-opacity:1;fill-rule:nonzero;stroke:none"
               id="path454" />
          </g>
          <g
             id="g456"
             transform="translate(413.4205,273.2629)">
            <path
               d="m 0,0 c 0.016,-0.032 -0.31,-0.217 -0.911,-0.523 -0.6,-0.31 -1.487,-0.718 -2.602,-1.185 -2.224,-0.936 -5.386,-2.041 -8.982,-2.873 -3.598,-0.825 -6.925,-1.216 -9.335,-1.349 -1.205,-0.068 -2.183,-0.09 -2.857,-0.073 -0.675,0.012 -1.047,0.036 -1.048,0.071 -0.001,0.084 1.487,0.141 3.877,0.369 2.389,0.226 5.678,0.671 9.246,1.49 3.565,0.825 6.717,1.865 8.965,2.708 C -1.399,-0.524 -0.035,0.076 0,0"
               style="fill:#e0e0e0;fill-opacity:1;fill-rule:nonzero;stroke:none"
               id="path458" />
          </g>
        </g>
      </g>
      <g
         id="g460">
        <g
           id="g462"
           clip-path="url(#clipPath466)">
          <g
             id="g468"
             transform="translate(100.004,178.4499)">
            <path
               d="m 0,0 c 0,-22.807 19.382,-41.296 43.29,-41.296 23.908,0 43.29,18.489 43.29,41.296 0,22.808 -19.382,41.297 -43.29,41.297 C 19.382,41.297 0,22.808 0,0"
               style="fill:#e0e0e0;fill-opacity:1;fill-rule:nonzero;stroke:none"
               id="path470" />
          </g>
          <g
             id="g472"
             transform="translate(134.4743,278.0182)">
            <path
               d="m 0,0 c -6.868,-0.357 -9.564,-7.517 -10.386,-9.115 -0.821,-1.598 -0.949,-3.448 -1.1,-5.239 -0.151,-1.791 -0.363,-3.649 -1.318,-5.172 -1.511,-2.412 -4.687,-3.659 -5.552,-6.371 -0.979,-3.067 1.533,-6.349 0.863,-9.498 -0.359,-1.69 -1.593,-3.081 -2.029,-4.752 -0.456,-1.747 0.019,-3.634 0.927,-5.193 2.255,-3.874 6.931,-5.82 11.411,-5.979 4.48,-0.16 8.863,1.179 13.145,2.506"
               style="fill:#263238;fill-opacity:1;fill-rule:nonzero;stroke:none"
               id="path474" />
          </g>
          <g
             id="g476"
             transform="translate(164.6945,269.1198)">
            <path
               d="m 0,0 c -0.672,-1.454 -0.037,-3.219 1.017,-4.425 1.054,-1.205 2.47,-2.024 3.717,-3.029 1.247,-1.004 2.393,-2.329 2.538,-3.924 0.133,-1.465 -0.603,-2.917 -0.403,-4.374 0.513,-3.744 6.483,-4.867 6.801,-8.633 0.212,-2.507 -2.361,-4.81 -1.649,-7.222 0.274,-0.925 0.99,-1.641 1.487,-2.467 1.694,-2.814 0.545,-6.695 -1.909,-8.875 -2.455,-2.182 -5.868,-2.95 -9.148,-3.098 -2.759,-0.124 -5.893,0.327 -7.517,2.561 -1.487,2.043 -1.182,4.83 -0.885,7.339 1.387,11.718 1.151,23.561 0.913,35.358"
               style="fill:#263238;fill-opacity:1;fill-rule:nonzero;stroke:none"
               id="path478" />
          </g>
          <g
             id="g480"
             transform="translate(136.278,214.8884)">
            <path
               d="m 0,0 c 0.052,6.157 -0.005,12.64 -0.005,12.64 0,0 -7.916,1.408 -9.439,11.774 -1.453,9.887 1.011,31.151 1.011,31.151 11.468,4.523 24.38,2.773 32.414,-6.457 L 22.732,-0.888 C 22.587,-6.692 17.481,-11.19 11.268,-10.987 v 0 C 4.992,-10.782 -0.05,-5.865 0,0"
               style="fill:#ffbe9d;fill-opacity:1;fill-rule:nonzero;stroke:none"
               id="path482" />
          </g>
          <g
             id="g484"
             transform="translate(129.9996,254.1257)">
            <path
               d="m 0,0 c -0.033,-0.701 0.533,-1.306 1.264,-1.354 0.73,-0.047 1.349,0.48 1.382,1.181 C 2.679,0.527 2.113,1.133 1.383,1.181 0.652,1.229 0.033,0.7 0,0"
               style="fill:#263238;fill-opacity:1;fill-rule:nonzero;stroke:none"
               id="path486" />
          </g>
          <g
             id="g488"
             transform="translate(127.8654,255.152)">
            <path
               d="M 0,0 C 0.162,-0.175 1.176,0.557 2.604,0.537 5.292,0.147 5.242,-0.263 5.228,-0.037 5.305,0.04 5.141,0.354 4.688,0.692 4.243,1.028 3.48,1.358 2.591,1.365 1.701,1.371 0.949,1.052 0.515,0.721 0.072,0.39 -0.08,0.078 0,0"
               style="fill:#263238;fill-opacity:1;fill-rule:nonzero;stroke:none"
               id="path490" />
          </g>
          <g
             id="g492"
             transform="translate(144.6154,253.7043)">
            <path
               d="m 0,0 c -0.033,-0.701 0.533,-1.306 1.264,-1.354 0.73,-0.047 1.349,0.48 1.382,1.181 C 2.679,0.527 2.113,1.134 1.383,1.182 0.652,1.229 0.033,0.7 0,0"
               style="fill:#263238;fill-opacity:1;fill-rule:nonzero;stroke:none"
               id="path494" />
          </g>
          <g
             id="g496"
             transform="translate(142.7594,254.6584)">
            <path
               d="M 0,0 C 0.163,-0.175 1.178,0.558 2.605,0.537 4.031,0.538 5.071,-0.209 5.228,-0.036 5.305,0.041 5.143,0.354 4.688,0.692 4.243,1.028 3.48,1.358 2.591,1.365 1.702,1.371 0.95,1.052 0.516,0.722 0.074,0.39 -0.08,0.079 0,0"
               style="fill:#263238;fill-opacity:1;fill-rule:nonzero;stroke:none"
               id="path498" />
          </g>
          <g
             id="g500"
             transform="translate(137.4547,244.4147)">
            <path
               d="m 0,0 c 0.007,0.081 -0.878,0.245 -2.315,0.445 -0.364,0.042 -0.708,0.118 -0.767,0.368 -0.083,0.265 0.075,0.656 0.256,1.079 0.353,0.878 0.722,1.798 1.111,2.763 1.543,3.936 2.664,7.175 2.506,7.235 C 0.631,11.951 -0.749,8.81 -2.292,4.874 -2.664,3.903 -3.019,2.979 -3.357,2.093 -3.5,1.68 -3.743,1.213 -3.563,0.664 -3.468,0.391 -3.203,0.189 -2.97,0.124 -2.737,0.05 -2.532,0.044 -2.351,0.03 -0.905,-0.064 -0.007,-0.081 0,0"
               style="fill:#263238;fill-opacity:1;fill-rule:nonzero;stroke:none"
               id="path502" />
          </g>
          <g
             id="g504"
             transform="translate(136.2726,227.528)">
            <path
               d="m 0,0 c 0,0 6.956,-0.529 13.9,3.536 0,0 -3.443,-7.069 -13.789,-5.981 z"
               style="fill:#eb996e;fill-opacity:1;fill-rule:nonzero;stroke:none"
               id="path506" />
          </g>
          <g
             id="g508"
             transform="translate(138.0187,240.9665)">
            <path
               d="M 0,0 C 0.521,0.673 1.425,1.035 2.317,0.929 2.937,0.854 3.559,0.549 3.93,0.04 4.3,-0.469 4.371,-1.187 4.023,-1.664 3.632,-2.201 2.825,-2.316 2.146,-2.115 c -0.68,0.201 -1.261,0.657 -1.813,1.11 -0.152,0.126 -0.309,0.257 -0.403,0.427 -0.094,0.171 -0.112,0.392 0.008,0.532"
               style="fill:#eb996e;fill-opacity:1;fill-rule:nonzero;stroke:none"
               id="path510" />
          </g>
          <g
             id="g512"
             transform="translate(141.6456,243.3786)">
            <path
               d="M 0,0 C -0.232,0.016 -0.253,-1.534 -1.592,-2.619 -2.93,-3.707 -4.58,-3.514 -4.595,-3.73 c -0.022,-0.098 0.365,-0.306 1.062,-0.333 0.684,-0.032 1.685,0.176 2.505,0.84 0.817,0.665 1.175,1.562 1.236,2.198 C 0.274,-0.379 0.106,0.008 0,0"
               style="fill:#263238;fill-opacity:1;fill-rule:nonzero;stroke:none"
               id="path514" />
          </g>
          <g
             id="g516"
             transform="translate(155.7648,271.381)">
            <path
               d="m 0,0 c -3.786,-5.4 -13.81,-10.952 -20.988,-12.241 0.838,1.103 5.247,3.822 6.085,4.925 -3.254,-2.43 -7.91,-5.68 -12.226,-5.9 -0.511,-0.026 -1.064,-0.025 -1.484,0.231 -0.573,0.349 -0.689,1.027 -0.755,1.626 -0.279,2.529 -0.104,6.867 0.299,9.377 0.402,2.51 1.556,5.008 3.734,6.69 2.766,2.137 6.724,2.664 10.453,2.754 3.128,0.075 6.352,-0.11 9.211,-1.239 2.858,-1.128 5.304,-3.359 5.722,-6.041"
               style="fill:#263238;fill-opacity:1;fill-rule:nonzero;stroke:none"
               id="path518" />
          </g>
          <g
             id="g520"
             transform="translate(166.6203,247.1901)">
            <path
               d="m 0,0 c 0.521,2.679 0.937,5.22 1.034,6.917 0.305,5.34 -1.237,25.049 -19.649,23.463 l -0.742,-5.608 c 0,0 -2.846,-19.193 9.064,-19.335 0,0 0.658,-5.718 6.051,-11.282 0,0 3.123,0.095 4.242,5.845"
               style="fill:#263238;fill-opacity:1;fill-rule:nonzero;stroke:none"
               id="path522" />
          </g>
          <g
             id="g524"
             transform="translate(156.3268,252.6271)">
            <path
               d="M 0,0 C 1.109,0.201 2.278,0.157 3.329,-0.252 4.378,-0.661 5.297,-1.457 5.741,-2.492 6.186,-3.531 6.126,-4.742 5.731,-5.8 5.336,-6.859 4.627,-7.777 3.814,-8.561 3.229,-9.125 2.566,-9.637 1.79,-9.872 1.013,-10.105 0.103,-10.018 -0.511,-9.487"
               style="fill:#ffbe9d;fill-opacity:1;fill-rule:nonzero;stroke:none"
               id="path526" />
          </g>
          <g
             id="g528"
             transform="translate(156.861,245.9118)">
            <path
               d="M 0,0 C -0.127,-0.04 0.346,-0.715 1.361,-0.454 1.849,-0.331 2.33,0.092 2.624,0.623 2.919,1.164 3.115,1.757 3.196,2.453 3.274,3.143 3.125,3.879 2.75,4.407 2.394,4.943 1.804,5.266 1.307,5.282 0.266,5.317 -0.064,4.6 0.053,4.578 0.136,4.493 0.543,4.859 1.223,4.687 1.875,4.561 2.505,3.654 2.352,2.537 2.215,1.4 1.765,0.363 1.156,0.11 0.522,-0.204 0.07,0.091 0,0"
               style="fill:#eb996e;fill-opacity:1;fill-rule:nonzero;stroke:none"
               id="path530" />
          </g>
          <g
             id="g532"
             transform="translate(158.3366,273.405)">
            <path
               d="M 0,0 C 1.409,-0.804 3.135,-1.031 4.704,-0.618 6.272,-0.206 7.665,0.841 8.496,2.233 9.033,3.132 9.341,4.222 9.078,5.236 8.718,6.621 7.371,7.556 5.985,7.917 3.976,8.439 1.699,7.939 0.18,6.523 -1.339,5.106 -1.993,2.79 -1.319,0.825 -0.645,-1.139 1.383,-2.588 3.457,-2.47"
               style="fill:#263238;fill-opacity:1;fill-rule:nonzero;stroke:none"
               id="path534" />
          </g>
          <g
             id="g536"
             transform="translate(160.0148,243.5554)">
            <path
               d="m 0,0 c -1.024,-0.739 -2.062,-1.49 -2.862,-2.468 -0.801,-0.977 -1.351,-2.224 -1.235,-3.482 0.065,-0.704 0.334,-1.4 0.232,-2.099 -0.14,-0.962 -0.93,-1.675 -1.451,-2.495 -1.347,-2.123 -0.768,-5.101 0.935,-6.949 1.703,-1.85 4.291,-2.684 6.803,-2.766 1.457,-0.048 2.987,0.157 4.182,0.993 1.721,1.205 2.384,3.464 2.428,5.566"
               style="fill:#263238;fill-opacity:1;fill-rule:nonzero;stroke:none"
               id="path538" />
          </g>
          <g
             id="g540"
             transform="translate(161.2648,269.2746)">
            <path
               d="m 0,0 c 0.054,-0.032 -0.311,-0.784 -1.085,-1.888 -0.77,-1.103 -1.983,-2.535 -3.546,-3.881 -1.566,-1.342 -3.164,-2.327 -4.37,-2.923 -1.208,-0.599 -2.005,-0.847 -2.029,-0.788 -0.076,0.15 2.998,1.449 6.06,4.106 C -1.884,-2.747 -0.138,0.097 0,0"
               style="fill:#455a64;fill-opacity:1;fill-rule:nonzero;stroke:none"
               id="path542" />
          </g>
          <g
             id="g544"
             transform="translate(163.1745,269.3762)">
            <path
               d="m 0,0 c 0.057,-0.006 0.021,-0.985 -0.339,-2.523 -0.355,-1.536 -1.096,-3.616 -2.339,-5.69 -1.25,-2.07 -2.741,-3.699 -3.931,-4.732 -1.191,-1.038 -2.038,-1.529 -2.071,-1.482 -0.123,0.129 3.127,2.388 5.555,6.483 C -0.645,-3.882 -0.171,0.049 0,0"
               style="fill:#455a64;fill-opacity:1;fill-rule:nonzero;stroke:none"
               id="path546" />
          </g>
          <g
             id="g548"
             transform="translate(123.2008,261.0422)">
            <path
               d="M 0,0 C 0.153,0.011 0.351,-1.722 0.948,-3.767 1.533,-5.817 2.289,-7.388 2.154,-7.46 2.04,-7.531 1.052,-6.027 0.448,-3.912 -0.168,-1.8 -0.134,-0.001 0,0"
               style="fill:#455a64;fill-opacity:1;fill-rule:nonzero;stroke:none"
               id="path550" />
          </g>
          <g
             id="g552"
             transform="translate(167.3053,225.6628)">
            <path
               d="m 0,0 c 0.027,0.063 0.464,-0.467 1.522,-0.489 0.514,-0.005 1.161,0.143 1.762,0.555 0.6,0.405 1.092,1.132 1.335,2.021 C 4.86,2.98 4.865,4.022 4.638,5.101 4.422,6.187 4.001,7.309 3.63,8.532 c -0.361,1.219 -0.676,2.59 -0.444,4.031 0.23,1.465 1.18,2.654 1.643,3.969 0.472,1.314 0.282,2.769 -0.296,3.946 -0.591,1.193 -1.587,2.06 -2.741,2.505 -0.572,0.245 -1.166,0.452 -1.715,0.75 -0.548,0.294 -1.058,0.704 -1.369,1.227 -0.642,1.055 -0.616,2.199 -0.619,3.146 0.018,0.969 0.07,1.817 -0.103,2.543 -0.155,0.726 -0.426,1.32 -0.751,1.723 -0.672,0.823 -1.382,0.765 -1.348,0.833 -10e-4,0.009 0.154,0.033 0.436,-0.033 0.281,-0.061 0.694,-0.253 1.067,-0.669 0.374,-0.413 0.689,-1.032 0.88,-1.788 0.21,-0.761 0.181,-1.666 0.187,-2.609 0.02,-0.937 0.042,-2.021 0.615,-2.913 0.559,-0.919 1.724,-1.299 2.906,-1.768 C 3.198,22.976 4.354,22 4.99,20.706 5.628,19.426 5.845,17.824 5.321,16.36 4.8,14.926 3.888,13.783 3.689,12.477 3.469,11.173 3.748,9.864 4.09,8.668 4.441,7.464 4.855,6.316 5.062,5.184 5.28,4.054 5.257,2.939 4.973,1.985 4.687,1.032 4.129,0.251 3.446,-0.176 2.77,-0.604 2.067,-0.729 1.516,-0.691 0.958,-0.659 0.554,-0.461 0.318,-0.3 0.079,-0.136 0,0 0,0"
               style="fill:#455a64;fill-opacity:1;fill-rule:nonzero;stroke:none"
               id="path554" />
          </g>
          <g
             id="g556"
             transform="translate(160.0861,226.3659)">
            <path
               d="M 0,0 C 0.046,0.029 0.131,-0.32 0.616,-0.541 1.052,-0.752 2.024,-0.766 2.556,-0.016 3.097,0.74 3.013,2.013 2.394,3.114 1.824,4.245 0.691,5.352 0.401,7.003 0.249,7.801 0.44,8.71 0.958,9.31 c 0.488,0.603 1.064,1.005 1.438,1.5 0.755,0.996 0.818,2.245 0.697,3.192 C 2.964,14.973 2.687,15.739 2.52,16.271 2.344,16.803 2.254,17.103 2.289,17.116 2.321,17.13 2.474,16.857 2.708,16.345 2.935,15.83 3.272,15.074 3.457,14.057 3.628,13.062 3.628,11.701 2.779,10.52 2.354,9.946 1.772,9.524 1.359,8.995 0.933,8.48 0.792,7.795 0.916,7.088 1.151,5.65 2.214,4.56 2.82,3.336 3.467,2.131 3.553,0.664 2.854,-0.232 2.516,-0.692 2.002,-0.883 1.585,-0.927 1.157,-0.969 0.783,-0.877 0.523,-0.722 -0.013,-0.395 -0.019,0.016 0,0"
               style="fill:#455a64;fill-opacity:1;fill-rule:nonzero;stroke:none"
               id="path558" />
          </g>
          <g
             id="g560"
             transform="translate(120.8873,228.9782)">
            <path
               d="m 0,0 c -0.026,-0.021 -0.321,0.261 -0.814,0.813 -0.478,0.559 -1.207,1.378 -1.745,2.629 -0.266,0.624 -0.44,1.371 -0.42,2.183 0.019,0.803 0.257,1.706 0.882,2.422 0.619,0.72 1.519,1.091 2.061,1.764 0.559,0.666 0.631,1.644 0.413,2.573 -0.215,0.947 -0.651,1.796 -1.096,2.642 -0.431,0.85 -0.827,1.715 -0.973,2.624 -0.16,0.904 0.04,1.852 0.515,2.525 0.462,0.682 1.04,1.148 1.524,1.588 1.009,0.83 1.58,1.734 1.707,2.437 0.14,0.703 -0.101,1.087 -0.043,1.102 0.012,0.006 0.079,-0.077 0.152,-0.264 0.073,-0.184 0.139,-0.487 0.091,-0.87 C 2.187,23.396 1.596,22.372 0.597,21.493 0.125,21.035 -0.42,20.559 -0.814,19.94 -1.218,19.329 -1.369,18.542 -1.218,17.729 -1.077,16.912 -0.697,16.092 -0.266,15.26 0.175,14.436 0.654,13.521 0.886,12.499 1.126,11.497 1.056,10.307 0.36,9.489 -0.32,8.689 -1.214,8.344 -1.738,7.729 -2.278,7.13 -2.513,6.341 -2.547,5.607 -2.583,4.868 -2.446,4.173 -2.217,3.578 -1.752,2.379 -1.083,1.532 -0.657,0.94 -0.215,0.354 0.029,0.024 0,0"
               style="fill:#455a64;fill-opacity:1;fill-rule:nonzero;stroke:none"
               id="path562" />
          </g>
          <g
             id="g564"
             transform="translate(162.5905,272.0978)">
            <path
               d="M 0,0 C -0.141,-0.072 -0.837,1.46 -2.438,2.648 -4.018,3.866 -5.681,4.119 -5.65,4.274 -5.671,4.407 -3.839,4.377 -2.124,3.063 -0.394,1.771 0.134,0.017 0,0"
               style="fill:#e8505b;fill-opacity:1;fill-rule:nonzero;stroke:none"
               id="path566" />
          </g>
          <g
             id="g568"
             transform="translate(164.0343,281.6725)">
            <path
               d="m 0,0 c 0.052,0.033 0.387,-0.358 0.658,-1.135 0.271,-0.764 0.427,-1.944 0.088,-3.173 -0.34,-1.228 -1.079,-2.16 -1.705,-2.677 -0.63,-0.528 -1.119,-0.691 -1.146,-0.637 -0.042,0.07 0.367,0.344 0.893,0.904 0.525,0.552 1.148,1.435 1.456,2.549 0.307,1.114 0.226,2.191 0.059,2.935 C 0.139,-0.483 -0.071,-0.039 0,0"
               style="fill:#455a64;fill-opacity:1;fill-rule:nonzero;stroke:none"
               id="path570" />
          </g>
          <g
             id="g572">
            <g
               id="g574" />
            <g
               id="g586">
              <g
                 clip-path="url(#clipPath578)"
                 opacity="0.300003"
                 id="g584">
                <g
                   transform="translate(113.254,158.6569)"
                   id="g582">
                  <path
                     d="m 0,0 c 0,0 24.845,-23.593 39.614,-19.32 14.769,4.271 19.14,15.351 19.14,15.351 L 59.112,0 57.632,0.969 0.772,5.572 Z"
                     style="fill:#000000;fill-opacity:1;fill-rule:nonzero;stroke:none"
                     id="path580" />
                </g>
              </g>
            </g>
          </g>
          <g
             id="g588"
             transform="translate(98.5553,180.7565)">
            <path
               d="M 0,0 4.792,12.287 21.964,1.497 6.663,-22.1 c 0,0 -6.225,8.086 -6.663,22.1"
               style="fill:#eb996e;fill-opacity:1;fill-rule:nonzero;stroke:none"
               id="path590" />
          </g>
          <g
             id="g592"
             transform="translate(117.9347,214.7048)">
            <path
               d="m 0,0 c 7.99,4.174 18.338,5.376 18.338,5.376 3.004,-6.012 12.469,-6.774 18.2,-2.672 l 4.833,3.268 c 0,0 0.749,0.029 2.025,-0.083 11.305,-1 20.558,-9.444 22.862,-20.556 0.839,-4.045 1.457,-8.687 1.209,-12.992 -0.628,-10.924 -11.942,-11.912 -11.942,-11.912 0,0 -0.583,-10.798 -1.347,-19.52 v -10e-4 c -0.568,-6.516 -3.949,-11.385 -9.894,-14.112 -4.426,-2.03 -6.867,-2.969 -12.614,-3.888 -14.488,-2.317 -28.406,3.183 -37.583,13.013 1.717,10.406 3.356,23.879 3.24,24.481 -0.025,0.127 0.019,0.2 0.019,0.2 l -11.214,9.954 -6.355,5.337 c 0,0 13.947,20.699 20.223,24.107"
               style="fill:#e8505b;fill-opacity:1;fill-rule:nonzero;stroke:none"
               id="path594" />
          </g>
          <g
             id="g596"
             transform="translate(131.8288,207.9714)">
            <path
               d="M 0,0 C -0.042,-0.103 -0.957,0.769 -2.772,0.768 -3.65,0.765 -4.738,0.51 -5.631,-0.225 c -0.445,-0.357 -0.824,-0.863 -1.273,-1.367 -0.439,-0.493 -1.009,-1.055 -1.815,-1.204 -0.807,-0.151 -1.553,0.204 -2.113,0.566 -0.576,0.368 -1.068,0.772 -1.574,1.062 -0.989,0.606 -2.114,0.549 -2.933,0.256 -0.836,-0.293 -1.39,-0.794 -1.705,-1.176 -0.315,-0.39 -0.429,-0.654 -0.472,-0.636 -0.024,0.007 0.026,0.303 0.308,0.755 0.283,0.444 0.84,1.033 1.738,1.402 0.868,0.368 2.162,0.481 3.3,-0.183 0.558,-0.306 1.065,-0.71 1.609,-1.048 0.539,-0.34 1.143,-0.602 1.75,-0.485 0.605,0.105 1.098,0.555 1.528,1.033 0.437,0.477 0.837,1 1.352,1.4 1.023,0.802 2.222,1.03 3.165,0.986 C -1.809,1.092 -1.072,0.798 -0.624,0.524 -0.173,0.246 0.017,0.019 0,0"
               style="fill:#fafafa;fill-opacity:1;fill-rule:nonzero;stroke:none"
               id="path598" />
          </g>
          <g
             id="g600"
             transform="translate(143.2228,193.0436)">
            <path
               d="M 0,0 C -0.073,-0.084 -0.661,1.033 -2.382,1.612 -3.214,1.89 -4.327,1.996 -5.408,1.586 -5.943,1.389 -6.464,1.03 -7.051,0.696 -7.625,0.369 -8.344,0.019 -9.155,0.136 c -0.814,0.114 -1.407,0.689 -1.821,1.211 -0.429,0.532 -0.766,1.072 -1.153,1.509 -0.743,0.89 -1.828,1.196 -2.698,1.18 -0.885,-0.011 -1.57,-0.308 -1.991,-0.57 -0.422,-0.269 -0.616,-0.483 -0.65,-0.451 -0.02,0.013 0.121,0.278 0.533,0.617 0.41,0.329 1.126,0.71 2.094,0.772 0.941,0.072 2.203,-0.234 3.07,-1.227 0.43,-0.469 0.781,-1.013 1.189,-1.507 0.402,-0.494 0.891,-0.937 1.503,-1.02 0.608,-0.092 1.218,0.176 1.778,0.492 0.567,0.312 1.113,0.68 1.729,0.894 1.225,0.434 2.434,0.266 3.314,-0.077 C -1.365,1.611 -0.761,1.098 -0.424,0.695 -0.085,0.287 0.022,0.012 0,0"
               style="fill:#fafafa;fill-opacity:1;fill-rule:nonzero;stroke:none"
               id="path602" />
          </g>
          <g
             id="g604"
             transform="translate(168.5304,214.903)">
            <path
               d="m 0,0 c -0.02,-0.109 -1.098,0.549 -2.872,0.163 -0.857,-0.188 -1.866,-0.668 -2.584,-1.575 -0.359,-0.443 -0.622,-1.018 -0.954,-1.606 -0.325,-0.575 -0.762,-1.245 -1.519,-1.56 -0.757,-0.319 -1.562,-0.13 -2.184,0.105 -0.641,0.238 -1.208,0.529 -1.764,0.705 -1.095,0.383 -2.182,0.088 -2.921,-0.371 -0.755,-0.464 -1.19,-1.07 -1.417,-1.51 -0.225,-0.448 -0.282,-0.731 -0.327,-0.721 -0.024,0.002 -0.039,0.301 0.141,0.803 0.183,0.493 0.603,1.188 1.402,1.737 0.77,0.544 2.011,0.929 3.264,0.52 0.61,-0.18 1.191,-0.467 1.795,-0.683 0.598,-0.218 1.244,-0.347 1.812,-0.104 0.569,0.232 0.956,0.776 1.275,1.333 0.326,0.559 0.606,1.155 1.025,1.655 0.83,1 1.953,1.476 2.885,1.633 0.944,0.16 1.727,0.029 2.223,-0.144 C -0.221,0.204 0.013,0.022 0,0"
               style="fill:#fafafa;fill-opacity:1;fill-rule:nonzero;stroke:none"
               id="path606" />
          </g>
          <g
             id="g608"
             transform="translate(156.8527,198.4958)">
            <path
               d="M 0,0 C -0.073,-0.068 -0.5,0.799 -1.795,1.287 -2.422,1.522 -3.266,1.636 -4.097,1.358 -4.507,1.228 -4.918,0.971 -5.384,0.73 -5.839,0.497 -6.418,0.243 -7.063,0.365 -7.709,0.486 -8.158,0.967 -8.46,1.386 -8.774,1.815 -9.013,2.243 -9.292,2.59 c -0.527,0.699 -1.333,0.971 -1.996,0.995 -1.385,0.042 -2.025,-0.743 -2.071,-0.652 -0.021,0.016 0.091,0.221 0.42,0.476 0.326,0.247 0.897,0.526 1.654,0.545 0.735,0.028 1.718,-0.253 2.365,-1.06 C -8.6,2.514 -8.346,2.082 -8.051,1.69 -7.76,1.3 -7.41,0.957 -6.964,0.877 -6.044,0.715 -5.2,1.542 -4.241,1.816 -3.264,2.109 -2.328,1.931 -1.656,1.628 -0.267,0.988 0.053,-0.011 0,0"
               style="fill:#fafafa;fill-opacity:1;fill-rule:nonzero;stroke:none"
               id="path610" />
          </g>
          <g
             id="g612"
             transform="translate(131.0973,184.6755)">
            <path
               d="M 0,0 C -0.073,-0.068 -0.5,0.798 -1.795,1.287 -2.422,1.521 -3.266,1.636 -4.097,1.358 -4.507,1.227 -4.918,0.97 -5.384,0.73 -5.839,0.497 -6.418,0.242 -7.063,0.365 -7.709,0.486 -8.158,0.966 -8.46,1.386 c -0.314,0.429 -0.553,0.857 -0.832,1.203 -0.527,0.7 -1.333,0.972 -1.996,0.996 -1.385,0.042 -2.025,-0.743 -2.071,-0.653 -0.021,0.017 0.091,0.221 0.42,0.476 0.326,0.248 0.897,0.527 1.654,0.545 0.736,0.029 1.718,-0.252 2.365,-1.059 0.32,-0.38 0.574,-0.813 0.869,-1.204 0.291,-0.391 0.641,-0.733 1.087,-0.814 0.92,-0.161 1.764,0.666 2.723,0.94 0.977,0.293 1.913,0.115 2.584,-0.188 C -0.267,0.987 0.053,-0.012 0,0"
               style="fill:#fafafa;fill-opacity:1;fill-rule:nonzero;stroke:none"
               id="path614" />
          </g>
          <g
             id="g616"
             transform="translate(155.1735,184.364)">
            <path
               d="m 0,0 c -0.047,-0.089 -0.731,0.593 -2.115,0.637 -0.67,0.019 -1.504,-0.146 -2.2,-0.678 -0.347,-0.257 -0.652,-0.633 -1.016,-1.011 -0.355,-0.368 -0.82,-0.796 -1.47,-0.888 -0.651,-0.095 -1.23,0.214 -1.652,0.513 -0.436,0.305 -0.801,0.632 -1.176,0.87 -0.726,0.492 -1.576,0.488 -2.212,0.296 -1.324,-0.409 -1.675,-1.358 -1.748,-1.288 -0.025,0.009 0.015,0.239 0.243,0.587 0.229,0.34 0.678,0.787 1.389,1.051 0.686,0.265 1.707,0.316 2.581,-0.238 0.426,-0.255 0.805,-0.582 1.211,-0.857 0.402,-0.276 0.844,-0.486 1.292,-0.419 0.923,0.146 1.454,1.201 2.273,1.771 0.829,0.592 1.773,0.727 2.506,0.658 C -0.572,0.848 0.054,0.006 0,0"
               style="fill:#fafafa;fill-opacity:1;fill-rule:nonzero;stroke:none"
               id="path618" />
          </g>
          <g
             id="g620"
             transform="translate(147.2208,173.3815)">
            <path
               d="m 0,0 c -0.047,-0.089 -0.732,0.593 -2.116,0.636 -0.669,0.02 -1.503,-0.145 -2.2,-0.676 -0.346,-0.258 -0.651,-0.634 -1.015,-1.012 -0.356,-0.368 -0.821,-0.796 -1.471,-0.888 -0.65,-0.095 -1.23,0.214 -1.651,0.513 -0.436,0.305 -0.801,0.632 -1.176,0.87 -0.726,0.492 -1.577,0.488 -2.212,0.296 -1.324,-0.409 -1.676,-1.358 -1.748,-1.288 -0.026,0.009 0.015,0.239 0.243,0.587 0.229,0.34 0.678,0.787 1.388,1.051 0.687,0.265 1.708,0.317 2.582,-0.238 0.425,-0.255 0.805,-0.582 1.211,-0.857 0.402,-0.276 0.844,-0.486 1.292,-0.419 0.922,0.146 1.453,1.201 2.273,1.771 0.829,0.593 1.772,0.727 2.506,0.658 C -0.573,0.848 0.053,0.006 0,0"
               style="fill:#fafafa;fill-opacity:1;fill-rule:nonzero;stroke:none"
               id="path622" />
          </g>
          <g
             id="g624"
             transform="translate(130.4259,146.1208)">
            <path
               d="M 0,0 C -0.072,-0.07 -0.512,0.791 -1.813,1.261 -2.444,1.487 -3.288,1.589 -4.115,1.3 -4.524,1.163 -4.931,0.9 -5.394,0.654 -5.846,0.414 -6.421,0.151 -7.067,0.265 c -0.648,0.112 -1.103,0.586 -1.412,1 -0.32,0.425 -0.565,0.849 -0.848,1.192 -0.538,0.692 -1.347,0.952 -2.01,0.968 -1.386,0.021 -2.015,-0.773 -2.062,-0.683 -0.021,0.017 0.088,0.223 0.413,0.483 0.323,0.252 0.889,0.538 1.646,0.568 0.735,0.039 1.721,-0.229 2.38,-1.026 0.326,-0.375 0.585,-0.804 0.886,-1.191 0.297,-0.388 0.651,-0.724 1.098,-0.799 0.922,-0.148 1.754,0.691 2.71,0.979 0.972,0.307 1.912,0.141 2.587,-0.152 C -0.281,0.983 0.053,-0.011 0,0"
               style="fill:#fafafa;fill-opacity:1;fill-rule:nonzero;stroke:none"
               id="path626" />
          </g>
          <g
             id="g628"
             transform="translate(150.0778,140.322)">
            <path
               d="m 0,0 c -0.048,-0.088 -0.723,0.604 -2.106,0.666 -0.669,0.029 -1.506,-0.125 -2.21,-0.646 -0.349,-0.252 -0.66,-0.624 -1.029,-0.998 -0.36,-0.362 -0.832,-0.784 -1.483,-0.868 -0.651,-0.085 -1.227,0.232 -1.644,0.536 -0.432,0.312 -0.792,0.644 -1.164,0.887 -0.719,0.501 -1.569,0.509 -2.207,0.326 -1.329,-0.39 -1.694,-1.335 -1.766,-1.263 -0.025,0.009 0.018,0.239 0.251,0.583 0.233,0.337 0.689,0.778 1.403,1.032 0.69,0.255 1.711,0.293 2.578,-0.274 0.422,-0.261 0.797,-0.593 1.199,-0.874 0.398,-0.281 0.837,-0.498 1.286,-0.436 0.925,0.133 1.47,1.181 2.297,1.739 0.837,0.581 1.783,0.702 2.515,0.623 C -0.561,0.856 0.054,0.006 0,0"
               style="fill:#fafafa;fill-opacity:1;fill-rule:nonzero;stroke:none"
               id="path630" />
          </g>
          <g
             id="g632"
             transform="translate(85.3175,223.0212)">
            <path
               d="M 0,0 C 0.607,-0.716 22.593,-30.114 22.593,-30.114 L 19.499,-31.868 -3.063,-2.843 Z"
               style="fill:#263238;fill-opacity:1;fill-rule:nonzero;stroke:none"
               id="path634" />
          </g>
          <g
             id="g636"
             transform="translate(171.1339,202.0456)">
            <path
               d="m 0,0 c 0,0 -20.622,-35.563 -22.016,-36.217 -2.745,-1.288 -34.388,26.057 -37.405,28.673 -0.415,0.555 -1.274,1.728 -2.96,4.06 0,0 -2.496,11.423 -5.161,10.546 -2.664,-0.877 1.46,-5.805 -0.274,-10.145 -1.736,-4.341 -9.682,6.012 -10,6.941 l -2.049,2.678 c 0,0 -2.149,-6.093 -2.004,-8.637 0.467,-8.15 8.178,-17.843 8.178,-17.843 0,0 31.334,-39.264 55.055,-40.595 6.832,-0.384 19.882,19.285 27.999,33.821 4.902,8.779 2.627,17.696 -5.497,23.619 z"
               style="fill:#ffbe9d;fill-opacity:1;fill-rule:nonzero;stroke:none"
               id="path638" />
          </g>
          <g
             id="g640"
             transform="translate(93.1583,198.4958)">
            <path
               d="M 0,0 C -0.069,-0.045 -0.937,1.202 -1.763,2.878 -2.594,4.552 -3.059,5.996 -2.981,6.024 -2.897,6.057 -2.306,4.674 -1.482,3.017 -0.664,1.356 0.076,0.048 0,0"
               style="fill:#eb996e;fill-opacity:1;fill-rule:nonzero;stroke:none"
               id="path642" />
          </g>
          <g
             id="g644"
             transform="translate(170.1642,211.9391)">
            <path
               d="M 0,0 C -0.815,-0.489 -19.991,-36.089 -19.991,-36.089 L 4.692,-55.424 c 0,0 6.422,15.819 9.808,28.678 0.92,3.49 0.446,12.817 -0.852,16.415 -1.843,5.113 -4.624,3.84 -8.788,6.835 z"
               style="fill:#e8505b;fill-opacity:1;fill-rule:nonzero;stroke:none"
               id="path646" />
          </g>
          <g
             id="g648">
            <g
               id="g650" />
            <g
               id="g662">
              <g
                 clip-path="url(#clipPath654)"
                 opacity="0.699997"
                 id="g660">
                <g
                   transform="translate(178.2731,211.9391)"
                   id="g658">
                  <path
                     d="M 0,0 C -0.015,-0.022 -0.242,0.137 -0.704,0.368 -1.158,0.602 -1.9,0.884 -2.874,0.824 -3.846,0.792 -4.992,0.319 -6.095,-0.521 c -1.107,-0.84 -2.19,-2.029 -3.213,-3.46 -1.042,-1.422 -1.903,-3.156 -2.957,-4.964 -1.034,-1.817 -2.137,-3.753 -3.297,-5.79 -2.334,-4.078 -4.896,-8.554 -7.586,-13.253 -1.641,-2.852 -3.234,-5.621 -4.732,-8.226 l -0.064,0.324 c 6.686,-5.284 12.506,-9.882 16.701,-13.198 2.034,-1.633 3.672,-2.948 4.846,-3.891 0.531,-0.438 0.957,-0.79 1.284,-1.059 0.29,-0.245 0.436,-0.379 0.426,-0.391 -0.009,-0.012 -0.173,0.098 -0.481,0.321 -0.34,0.253 -0.783,0.582 -1.336,0.993 -1.197,0.914 -2.866,2.189 -4.938,3.772 -4.224,3.28 -10.082,7.828 -16.814,13.055 l -0.172,0.135 0.109,0.189 c 1.493,2.607 3.082,5.377 4.717,8.232 2.702,4.69 5.275,9.157 7.62,13.228 1.174,2.028 2.291,3.957 3.338,5.766 1.063,1.786 1.958,3.538 3.038,4.972 1.058,1.44 2.18,2.635 3.338,3.479 1.151,0.843 2.363,1.311 3.386,1.313 1.024,0.03 1.78,-0.298 2.227,-0.565 0.237,-0.116 0.387,-0.257 0.5,-0.329 C -0.047,0.052 0.005,0.007 0,0"
                     style="fill:#000000;fill-opacity:1;fill-rule:nonzero;stroke:none"
                     id="path656" />
                </g>
              </g>
            </g>
          </g>
          <g
             id="g664"
             transform="translate(170.9025,178.5583)">
            <path
               d="M 0,0 C -0.073,-0.068 -0.5,0.798 -1.795,1.287 -2.422,1.521 -3.266,1.636 -4.096,1.358 -4.507,1.227 -4.917,0.97 -5.384,0.73 -5.839,0.497 -6.418,0.242 -7.063,0.365 -7.709,0.486 -8.158,0.967 -8.46,1.386 -8.774,1.815 -9.013,2.243 -9.292,2.59 c -0.527,0.699 -1.333,0.971 -1.996,0.995 -1.385,0.042 -2.025,-0.743 -2.071,-0.653 -0.021,0.017 0.091,0.221 0.42,0.476 0.327,0.248 0.897,0.527 1.654,0.545 0.736,0.029 1.718,-0.252 2.365,-1.059 C -8.6,2.514 -8.346,2.081 -8.051,1.69 -7.76,1.299 -7.41,0.957 -6.963,0.876 -6.044,0.715 -5.2,1.542 -4.24,1.816 -3.264,2.109 -2.328,1.931 -1.656,1.628 -0.267,0.987 0.053,-0.012 0,0"
               style="fill:#fafafa;fill-opacity:1;fill-rule:nonzero;stroke:none"
               id="path666" />
          </g>
          <g
             id="g668"
             transform="translate(182.1847,183.1628)">
            <path
               d="M 0,0 C -0.089,-0.046 -0.267,0.903 -1.382,1.724 -1.922,2.119 -2.703,2.456 -3.578,2.413 -4.009,2.397 -4.474,2.261 -4.988,2.155 -5.489,2.054 -6.115,1.965 -6.703,2.257 -7.292,2.548 -7.595,3.131 -7.772,3.616 -7.959,4.114 -8.074,4.591 -8.249,5 c -0.319,0.815 -1.022,1.295 -1.653,1.497 -1.323,0.413 -2.151,-0.17 -2.171,-0.07 -0.015,0.021 0.148,0.188 0.533,0.345 0.381,0.151 1.005,0.265 1.74,0.079 C -9.084,6.68 -8.214,6.145 -7.809,5.192 -7.603,4.74 -7.476,4.256 -7.296,3.8 -7.122,3.344 -6.877,2.92 -6.469,2.723 -5.627,2.318 -4.591,2.888 -3.593,2.893 -2.574,2.911 -1.721,2.487 -1.156,2.015 0.009,1.023 0.048,-0.025 0,0"
               style="fill:#fafafa;fill-opacity:1;fill-rule:nonzero;stroke:none"
               id="path670" />
          </g>
          <g
             id="g672"
             transform="translate(182.7643,197.8786)">
            <path
               d="m 0,0 c -0.089,-0.046 -0.267,0.903 -1.382,1.724 -0.54,0.395 -1.321,0.732 -2.196,0.689 -0.431,-0.016 -0.896,-0.152 -1.41,-0.258 -0.501,-0.101 -1.127,-0.19 -1.715,0.102 -0.589,0.291 -0.892,0.874 -1.069,1.359 -0.187,0.498 -0.302,0.975 -0.477,1.383 -0.319,0.816 -1.022,1.296 -1.653,1.498 -1.323,0.413 -2.151,-0.17 -2.171,-0.07 -0.016,0.021 0.148,0.188 0.533,0.345 0.381,0.151 1.005,0.264 1.74,0.079 C -9.084,6.68 -8.214,6.145 -7.809,5.192 -7.603,4.74 -7.476,4.255 -7.296,3.799 -7.122,3.344 -6.877,2.92 -6.469,2.722 -5.627,2.318 -4.592,2.888 -3.593,2.893 -2.574,2.911 -1.721,2.486 -1.156,2.014 0.009,1.023 0.048,-0.025 0,0"
               style="fill:#fafafa;fill-opacity:1;fill-rule:nonzero;stroke:none"
               id="path674" />
          </g>
          <g
             id="g676"
             transform="translate(177.3029,164.0485)">
            <path
               d="m 0,0 c -0.089,-0.047 -0.267,0.903 -1.382,1.723 -0.54,0.396 -1.321,0.733 -2.197,0.69 -0.43,-0.017 -0.895,-0.152 -1.409,-0.258 -0.501,-0.101 -1.127,-0.19 -1.715,0.102 -0.589,0.29 -0.892,0.874 -1.069,1.358 -0.187,0.499 -0.302,0.976 -0.477,1.384 -0.319,0.816 -1.022,1.295 -1.653,1.498 -1.323,0.413 -2.151,-0.17 -2.171,-0.07 -0.016,0.021 0.148,0.188 0.533,0.344 0.381,0.151 1.005,0.265 1.74,0.08 0.716,-0.171 1.586,-0.706 1.991,-1.66 0.206,-0.452 0.333,-0.936 0.513,-1.392 0.174,-0.455 0.419,-0.879 0.827,-1.077 0.842,-0.404 1.877,0.166 2.875,0.171 1.019,0.018 1.873,-0.407 2.438,-0.879 C 0.009,1.022 0.048,-0.025 0,0"
               style="fill:#fafafa;fill-opacity:1;fill-rule:nonzero;stroke:none"
               id="path678" />
          </g>
        </g>
      </g>
    </g>
  </g>
</svg>
